<svg width="412" height="405" viewBox="0 0 412 405" fill="none" xmlns="http://www.w3.org/2000/svg">
<g filter="url(#filter0_d_1163_3038)">
<path d="M41 5.2793H323C356.137 5.2793 383 32.1422 383 65.2793V327.279C383 360.416 356.137 387.279 323 387.279H101C67.8629 387.279 41 360.416 41 327.279V5.2793Z" fill="#DFF8F8"/>
<path fill-rule="evenodd" clip-rule="evenodd" d="M133.117 5.2793H16.813V43.3228H17V139.952H65C91.5097 139.952 113 118.461 113 91.9517V75.9517C113 63.3521 108.145 51.8863 100.205 43.3228H133.117C143.622 43.3228 152.138 34.8064 152.138 24.301C152.138 13.7956 143.622 5.2793 133.117 5.2793Z" fill="#334875"/>
<path fill-rule="evenodd" clip-rule="evenodd" d="M407.187 95.7565V232.802C402.548 233.77 397.74 234.279 392.813 234.279C354.153 234.279 322.813 202.939 322.813 164.279C322.813 125.619 354.153 94.2793 392.813 94.2793C397.74 94.2793 402.548 94.7883 407.187 95.7565Z" fill="#F52A3B"/>
<circle cx="210" cy="192.952" r="34" fill="#FCFA58"/>
<g filter="url(#filter1_d_1163_3038)">
<circle cx="284.313" cy="176.779" r="22.5" fill="#001A52"/>
</g>
<g filter="url(#filter2_d_1163_3038)">
<path d="M296.813 127.279H328.5C339.545 127.279 348.5 136.234 348.5 147.279V158.279C348.5 169.325 339.545 178.279 328.5 178.279H316.813C305.767 178.279 296.813 169.325 296.813 158.279V127.279Z" fill="#808CA8"/>
</g>
<circle cx="175.988" cy="156.66" r="12.5" transform="rotate(-36.4012 175.988 156.66)" fill="#001A52"/>
<g filter="url(#filter3_d_1163_3038)">
<circle cx="134.313" cy="181.779" r="7.5" fill="#F52A3B"/>
</g>
<g filter="url(#filter4_d_1163_3038)">
<circle cx="65.6625" cy="200.779" r="7.5" fill="#F52A3B"/>
</g>
</g>
<defs>
<filter id="filter0_d_1163_3038" x="0.0739179" y="0.714078" width="411.678" height="403.304" filterUnits="userSpaceOnUse" color-interpolation-filters="sRGB">
<feFlood flood-opacity="0" result="BackgroundImageFix"/>
<feColorMatrix in="SourceAlpha" type="matrix" values="0 0 0 0 0 0 0 0 0 0 0 0 0 0 0 0 0 0 127 0" result="hardAlpha"/>
<feOffset dx="-6.08696" dy="6.08696"/>
<feGaussianBlur stdDeviation="5.32609"/>
<feComposite in2="hardAlpha" operator="out"/>
<feColorMatrix type="matrix" values="0 0 0 0 0 0 0 0 0 0.101961 0 0 0 0 0.321569 0 0 0 0.25 0"/>
<feBlend mode="normal" in2="BackgroundImageFix" result="effect1_dropShadow_1163_3038"/>
<feBlend mode="normal" in="SourceGraphic" in2="effect1_dropShadow_1163_3038" result="shape"/>
</filter>
<filter id="filter1_d_1163_3038" x="254.813" y="154.279" width="53" height="53" filterUnits="userSpaceOnUse" color-interpolation-filters="sRGB">
<feFlood flood-opacity="0" result="BackgroundImageFix"/>
<feColorMatrix in="SourceAlpha" type="matrix" values="0 0 0 0 0 0 0 0 0 0 0 0 0 0 0 0 0 0 127 0" result="hardAlpha"/>
<feOffset dx="-3" dy="4"/>
<feGaussianBlur stdDeviation="2"/>
<feComposite in2="hardAlpha" operator="out"/>
<feColorMatrix type="matrix" values="0 0 0 0 0 0 0 0 0 0 0 0 0 0 0 0 0 0 0.25 0"/>
<feBlend mode="normal" in2="BackgroundImageFix" result="effect1_dropShadow_1163_3038"/>
<feBlend mode="normal" in="SourceGraphic" in2="effect1_dropShadow_1163_3038" result="shape"/>
</filter>
<filter id="filter2_d_1163_3038" x="289.813" y="127.279" width="59.6868" height="59" filterUnits="userSpaceOnUse" color-interpolation-filters="sRGB">
<feFlood flood-opacity="0" result="BackgroundImageFix"/>
<feColorMatrix in="SourceAlpha" type="matrix" values="0 0 0 0 0 0 0 0 0 0 0 0 0 0 0 0 0 0 127 0" result="hardAlpha"/>
<feOffset dx="-3" dy="4"/>
<feGaussianBlur stdDeviation="2"/>
<feComposite in2="hardAlpha" operator="out"/>
<feColorMatrix type="matrix" values="0 0 0 0 0 0 0 0 0 0 0 0 0 0 0 0 0 0 0.25 0"/>
<feBlend mode="normal" in2="BackgroundImageFix" result="effect1_dropShadow_1163_3038"/>
<feBlend mode="normal" in="SourceGraphic" in2="effect1_dropShadow_1163_3038" result="shape"/>
</filter>
<filter id="filter3_d_1163_3038" x="119.813" y="174.279" width="23" height="23" filterUnits="userSpaceOnUse" color-interpolation-filters="sRGB">
<feFlood flood-opacity="0" result="BackgroundImageFix"/>
<feColorMatrix in="SourceAlpha" type="matrix" values="0 0 0 0 0 0 0 0 0 0 0 0 0 0 0 0 0 0 127 0" result="hardAlpha"/>
<feOffset dx="-3" dy="4"/>
<feGaussianBlur stdDeviation="2"/>
<feComposite in2="hardAlpha" operator="out"/>
<feColorMatrix type="matrix" values="0 0 0 0 0 0 0 0 0 0 0 0 0 0 0 0 0 0 0.25 0"/>
<feBlend mode="normal" in2="BackgroundImageFix" result="effect1_dropShadow_1163_3038"/>
<feBlend mode="normal" in="SourceGraphic" in2="effect1_dropShadow_1163_3038" result="shape"/>
</filter>
<filter id="filter4_d_1163_3038" x="51.1625" y="193.279" width="23" height="23" filterUnits="userSpaceOnUse" color-interpolation-filters="sRGB">
<feFlood flood-opacity="0" result="BackgroundImageFix"/>
<feColorMatrix in="SourceAlpha" type="matrix" values="0 0 0 0 0 0 0 0 0 0 0 0 0 0 0 0 0 0 127 0" result="hardAlpha"/>
<feOffset dx="-3" dy="4"/>
<feGaussianBlur stdDeviation="2"/>
<feComposite in2="hardAlpha" operator="out"/>
<feColorMatrix type="matrix" values="0 0 0 0 0 0 0 0 0 0 0 0 0 0 0 0 0 0 0.25 0"/>
<feBlend mode="normal" in2="BackgroundImageFix" result="effect1_dropShadow_1163_3038"/>
<feBlend mode="normal" in="SourceGraphic" in2="effect1_dropShadow_1163_3038" result="shape"/>
</filter>
</defs>
</svg>
