<svg width="48" height="40" viewBox="0 0 48 40" fill="none" xmlns="http://www.w3.org/2000/svg">
<path id="Vector" d="M48.0001 20C48.0001 20.5304 47.7894 21.0392 47.4143 21.4142C47.0392 21.7893 46.5305 22 46.0001 22H6.82761L21.4151 36.585C21.6009 36.7708 21.7483 36.9914 21.8489 37.2342C21.9495 37.477 22.0012 37.7372 22.0012 38C22.0012 38.2628 21.9495 38.523 21.8489 38.7658C21.7483 39.0086 21.6009 39.2292 21.4151 39.415C21.2293 39.6008 21.0087 39.7482 20.7659 39.8488C20.5231 39.9494 20.2629 40.0011 20.0001 40.0011C19.7373 40.0011 19.4771 39.9494 19.2343 39.8488C18.9915 39.7482 18.7709 39.6008 18.5851 39.415L0.585108 21.415C0.399155 21.2293 0.251638 21.0087 0.150989 20.7659C0.0503405 20.5231 -0.00146484 20.2628 -0.00146484 20C-0.00146484 19.7372 0.0503405 19.4769 0.150989 19.2341C0.251638 18.9913 0.399155 18.7708 0.585108 18.585L18.5851 0.585013C18.9604 0.209732 19.4694 -0.00109864 20.0001 -0.00109863C20.5308 -0.00109863 21.0398 0.209732 21.4151 0.585013C21.7904 0.960295 22.0012 1.46929 22.0012 2.00001C22.0012 2.53074 21.7904 3.03973 21.4151 3.41501L6.82761 18H46.0001C46.5305 18 47.0392 18.2107 47.4143 18.5858C47.7894 18.9609 48.0001 19.4696 48.0001 20Z" fill="black"/>
</svg>
