<svg width="33" height="33" viewBox="0 0 33 33" fill="none" xmlns="http://www.w3.org/2000/svg">
<path d="M28.5205 17.6421L19.5205 26.6421C19.3328 26.8298 19.0784 26.9352 18.813 26.9352C18.5476 26.9352 18.2931 26.8298 18.1055 26.6421C17.9178 26.4545 17.8124 26.2 17.8124 25.9346C17.8124 25.6693 17.9178 25.4148 18.1055 25.2271L25.3992 17.9346H5.81299C5.54777 17.9346 5.29342 17.8293 5.10588 17.6417C4.91835 17.4542 4.81299 17.1999 4.81299 16.9346C4.81299 16.6694 4.91835 16.4151 5.10588 16.2275C5.29342 16.04 5.54777 15.9346 5.81299 15.9346H25.3992L18.1055 8.64214C17.9178 8.4545 17.8124 8.2 17.8124 7.93464C17.8124 7.66927 17.9178 7.41478 18.1055 7.22714C18.2931 7.0395 18.5476 6.93408 18.813 6.93408C19.0784 6.93408 19.3328 7.0395 19.5205 7.22714L28.5205 16.2271C28.6135 16.32 28.6872 16.4303 28.7375 16.5517C28.7879 16.6731 28.8138 16.8032 28.8138 16.9346C28.8138 17.0661 28.7879 17.1962 28.7375 17.3176C28.6872 17.439 28.6135 17.5493 28.5205 17.6421Z" fill="#F52A3B"/>
</svg>
