<svg width="50" height="50" viewBox="0 0 50 50" fill="none" xmlns="http://www.w3.org/2000/svg">
<path d="M40.168 37.9569C40.3132 38.1021 40.4283 38.2744 40.5069 38.4641C40.5854 38.6538 40.6259 38.8571 40.6259 39.0624C40.6259 39.2677 40.5854 39.471 40.5069 39.6607C40.4283 39.8503 40.3132 40.0227 40.168 40.1679C40.0228 40.313 39.8505 40.4282 39.6608 40.5068C39.4711 40.5853 39.2678 40.6258 39.0625 40.6258C38.8572 40.6258 38.6539 40.5853 38.4642 40.5068C38.2746 40.4282 38.1022 40.313 37.957 40.1679L25 27.2089L12.043 40.1679C11.7498 40.4611 11.3521 40.6258 10.9375 40.6258C10.5229 40.6258 10.1252 40.4611 9.83205 40.1679C9.53886 39.8747 9.37415 39.477 9.37415 39.0624C9.37415 38.6478 9.53886 38.2501 9.83205 37.9569L22.791 24.9999L9.83205 12.0429C9.53886 11.7497 9.37415 11.352 9.37415 10.9374C9.37415 10.5228 9.53886 10.1251 9.83205 9.83192C10.1252 9.53873 10.5229 9.37402 10.9375 9.37402C11.3521 9.37402 11.7498 9.53873 12.043 9.83192L25 22.7909L37.957 9.83192C38.2502 9.53873 38.6479 9.37402 39.0625 9.37402C39.4771 9.37402 39.8748 9.53873 40.168 9.83192C40.4612 10.1251 40.6259 10.5228 40.6259 10.9374C40.6259 11.352 40.4612 11.7497 40.168 12.0429L27.209 24.9999L40.168 37.9569Z" fill="#F0F3F4"/>
</svg>
