<svg width="32" height="33" viewBox="0 0 32 33" fill="none" xmlns="http://www.w3.org/2000/svg">
<g id="Brands">
<path id="Vector" d="M16 3.45068C13.4288 3.45068 10.9154 4.21312 8.77759 5.64158C6.63975 7.07004 4.97351 9.10036 3.98957 11.4758C3.00563 13.8512 2.74819 16.4651 3.2498 18.9869C3.75141 21.5086 4.98953 23.825 6.80762 25.6431C8.6257 27.4612 10.9421 28.6993 13.4638 29.2009C15.9856 29.7025 18.5995 29.4451 20.9749 28.4611C23.3503 27.4772 25.3807 25.8109 26.8091 23.6731C28.2376 21.5353 29 19.0218 29 16.4507C28.9964 13.004 27.6256 9.6995 25.1884 7.26232C22.7512 4.82513 19.4467 3.45432 16 3.45068ZM17 27.4044V19.4507H20C20.2652 19.4507 20.5196 19.3453 20.7071 19.1578C20.8946 18.9703 21 18.7159 21 18.4507C21 18.1855 20.8946 17.9311 20.7071 17.7436C20.5196 17.556 20.2652 17.4507 20 17.4507H17V14.4507C17 13.9203 17.2107 13.4115 17.5858 13.0365C17.9609 12.6614 18.4696 12.4507 19 12.4507H21C21.2652 12.4507 21.5196 12.3453 21.7071 12.1578C21.8946 11.9703 22 11.7159 22 11.4507C22 11.1855 21.8946 10.9311 21.7071 10.7436C21.5196 10.556 21.2652 10.4507 21 10.4507H19C17.9391 10.4507 16.9217 10.8721 16.1716 11.6223C15.4214 12.3724 15 13.3898 15 14.4507V17.4507H12C11.7348 17.4507 11.4804 17.556 11.2929 17.7436C11.1054 17.9311 11 18.1855 11 18.4507C11 18.7159 11.1054 18.9703 11.2929 19.1578C11.4804 19.3453 11.7348 19.4507 12 19.4507H15V27.4044C12.181 27.1471 9.56971 25.8129 7.7093 23.6794C5.8489 21.5459 4.8826 18.7773 5.0114 15.9495C5.1402 13.1217 6.35419 10.4524 8.40085 8.49682C10.4475 6.54126 13.1693 5.44998 16 5.44998C18.8307 5.44998 21.5525 6.54126 23.5992 8.49682C25.6458 10.4524 26.8598 13.1217 26.9886 15.9495C27.1174 18.7773 26.1511 21.5459 24.2907 23.6794C22.4303 25.8129 19.819 27.1471 17 27.4044Z" fill="black"/>
</g>
</svg>
