<svg width="390" height="727" viewBox="0 0 390 727" fill="none" xmlns="http://www.w3.org/2000/svg">
<path d="M60.6193 51.0511C60.392 48.7595 59.4167 46.9792 57.6932 45.7102C55.9697 44.4413 53.6307 43.8068 50.6761 43.8068C48.6686 43.8068 46.9735 44.0909 45.5909 44.6591C44.2083 45.2083 43.1477 45.9754 42.4091 46.9602C41.6894 47.9451 41.3295 49.0625 41.3295 50.3125C41.2917 51.3542 41.5095 52.2633 41.983 53.0398C42.4754 53.8163 43.1477 54.4886 44 55.0568C44.8523 55.6061 45.8371 56.089 46.9545 56.5057C48.072 56.9034 49.2652 57.2443 50.5341 57.5284L55.7614 58.7784C58.2992 59.3466 60.6288 60.1042 62.75 61.0511C64.8712 61.9981 66.7083 63.1629 68.2614 64.5455C69.8144 65.928 71.017 67.5568 71.8693 69.4318C72.7405 71.3068 73.1856 73.4564 73.2045 75.8807C73.1856 79.4413 72.2765 82.5284 70.4773 85.142C68.697 87.7367 66.1212 89.7538 62.75 91.1932C59.3977 92.6136 55.3542 93.3239 50.6193 93.3239C45.9223 93.3239 41.8314 92.6042 38.3466 91.1648C34.8807 89.7254 32.1723 87.5947 30.2216 84.7727C28.2898 81.9318 27.2765 78.4186 27.1818 74.233H39.0852C39.2178 76.1837 39.7765 77.8125 40.7614 79.1193C41.7652 80.4072 43.1004 81.3826 44.767 82.0455C46.4527 82.6894 48.3561 83.0114 50.4773 83.0114C52.5606 83.0114 54.3693 82.7083 55.9034 82.1023C57.4564 81.4962 58.6591 80.6534 59.5114 79.5739C60.3636 78.4943 60.7898 77.2538 60.7898 75.8523C60.7898 74.5455 60.4015 73.447 59.625 72.5568C58.8674 71.6667 57.75 70.9091 56.2727 70.2841C54.8144 69.6591 53.0246 69.0909 50.9034 68.5795L44.5682 66.9886C39.6629 65.7955 35.7898 63.9299 32.9489 61.392C30.108 58.8542 28.697 55.4356 28.7159 51.1364C28.697 47.6136 29.6345 44.536 31.5284 41.9034C33.4413 39.2708 36.0644 37.2159 39.3977 35.7386C42.7311 34.2614 46.5189 33.5227 50.7614 33.5227C55.0795 33.5227 58.8485 34.2614 62.0682 35.7386C65.3068 37.2159 67.8258 39.2708 69.625 41.9034C71.4242 44.536 72.3523 47.5852 72.4091 51.0511H60.6193ZM89.179 92.5H75.9972L96.0824 34.3182H111.935L131.991 92.5H118.81L104.236 47.6136H103.781L89.179 92.5ZM88.3551 69.6307H119.491V79.233H88.3551V69.6307ZM141.24 34.3182L155.303 78.5227H155.842L169.933 34.3182H183.57L163.513 92.5H147.661L127.575 34.3182H141.24ZM189.572 92.5V34.3182H228.777V44.4602H201.874V58.3239H226.76V68.4659H201.874V82.358H228.891V92.5H189.572ZM26.8409 125.46V115.318H74.625V125.46H56.8125V173.5H44.6534V125.46H26.8409ZM81.4943 173.5V115.318H93.7955V139.324H118.767V115.318H131.04V173.5H118.767V149.466H93.7955V173.5H81.4943ZM140.182 173.5V115.318H179.386V125.46H152.483V139.324H177.369V149.466H152.483V163.358H179.5V173.5H140.182ZM49.6818 254.5H29.0568V196.318H49.8523C55.7045 196.318 60.7424 197.483 64.9659 199.812C69.1894 202.123 72.4375 205.447 74.7102 209.784C77.0019 214.121 78.1477 219.311 78.1477 225.352C78.1477 231.413 77.0019 236.621 74.7102 240.977C72.4375 245.333 69.1705 248.676 64.9091 251.006C60.6667 253.335 55.5909 254.5 49.6818 254.5ZM41.358 243.96H49.1705C52.8068 243.96 55.8655 243.316 58.3466 242.028C60.8466 240.722 62.7216 238.705 63.9716 235.977C65.2405 233.231 65.875 229.689 65.875 225.352C65.875 221.053 65.2405 217.54 63.9716 214.812C62.7216 212.085 60.8561 210.078 58.375 208.79C55.8939 207.502 52.8352 206.858 49.1989 206.858H41.358V243.96ZM93.0071 254.5H79.8253L99.9105 196.318H115.763L135.82 254.5H122.638L108.064 209.614H107.609L93.0071 254.5ZM92.1832 231.631H123.32V241.233H92.1832V231.631ZM132.497 206.46V196.318H180.281V206.46H162.469V254.5H150.31V206.46H132.497ZM187.151 254.5V196.318H226.355V206.46H199.452V220.324H224.338V230.466H199.452V244.358H226.469V254.5H187.151Z" fill="#F52A3B"/>
<path d="M26.8267 294.5H24.4972L29.7315 279.955H32.267L37.5014 294.5H35.1719L31.0597 282.597H30.946L26.8267 294.5ZM27.2173 288.804H34.7741V290.651H27.2173V288.804ZM39.5815 298.591V283.591H41.6553V285.359H41.8329C41.956 285.132 42.1335 284.869 42.3656 284.571C42.5976 284.273 42.9195 284.012 43.3315 283.79C43.7434 283.562 44.2879 283.449 44.965 283.449C45.8457 283.449 46.6317 283.671 47.3229 284.116C48.0142 284.562 48.5564 285.203 48.9494 286.041C49.3471 286.879 49.546 287.888 49.546 289.067C49.546 290.246 49.3495 291.257 48.9565 292.099C48.5635 292.937 48.0237 293.584 47.3371 294.038C46.6506 294.488 45.867 294.713 44.9863 294.713C44.3234 294.713 43.7813 294.602 43.3599 294.379C42.9432 294.157 42.6165 293.896 42.3798 293.598C42.143 293.3 41.9607 293.035 41.8329 292.803H41.705V298.591H39.5815ZM41.6624 289.045C41.6624 289.812 41.7737 290.485 41.9962 291.062C42.2188 291.64 42.5407 292.092 42.9621 292.419C43.3835 292.741 43.8996 292.902 44.5104 292.902C45.1449 292.902 45.6752 292.734 46.1013 292.398C46.5275 292.057 46.8495 291.595 47.0673 291.013C47.2898 290.43 47.4011 289.775 47.4011 289.045C47.4011 288.326 47.2922 287.679 47.0744 287.107C46.8613 286.534 46.5393 286.081 46.1085 285.75C45.6823 285.419 45.1496 285.253 44.5104 285.253C43.8949 285.253 43.3741 285.411 42.9479 285.729C42.5265 286.046 42.2069 286.489 41.9891 287.057C41.7713 287.625 41.6624 288.288 41.6624 289.045ZM52.0752 294.5V283.591H54.1278V285.324H54.2414C54.4403 284.737 54.7906 284.275 55.2925 283.939C55.7992 283.598 56.3721 283.428 57.0113 283.428C57.1439 283.428 57.3001 283.432 57.48 283.442C57.6647 283.451 57.8091 283.463 57.9133 283.477V285.509C57.8281 285.485 57.6765 285.459 57.4587 285.43C57.2409 285.397 57.0231 285.381 56.8053 285.381C56.3034 285.381 55.856 285.487 55.463 285.7C55.0747 285.909 54.767 286.2 54.5397 286.574C54.3124 286.943 54.1988 287.365 54.1988 287.838V294.5H52.0752ZM59.901 294.5V283.591H62.0246V294.5H59.901ZM60.9734 281.908C60.6041 281.908 60.2869 281.785 60.0217 281.538C59.7613 281.287 59.6311 280.989 59.6311 280.643C59.6311 280.293 59.7613 279.995 60.0217 279.749C60.2869 279.498 60.6041 279.372 60.9734 279.372C61.3428 279.372 61.6576 279.498 61.918 279.749C62.1832 279.995 62.3158 280.293 62.3158 280.643C62.3158 280.989 62.1832 281.287 61.918 281.538C61.6576 281.785 61.3428 281.908 60.9734 281.908ZM67.155 279.955V294.5H65.0315V279.955H67.155ZM25.3991 318.5V316.909L30.321 311.81C30.8466 311.256 31.2798 310.77 31.6207 310.354C31.9664 309.932 32.2244 309.532 32.3949 309.153C32.5653 308.775 32.6506 308.372 32.6506 307.946C32.6506 307.463 32.5369 307.046 32.3097 306.696C32.0824 306.341 31.7723 306.069 31.3793 305.879C30.9863 305.685 30.5436 305.588 30.0511 305.588C29.5303 305.588 29.0758 305.695 28.6875 305.908C28.2992 306.121 28.0009 306.421 27.7926 306.81C27.5843 307.198 27.4801 307.652 27.4801 308.173H25.3849C25.3849 307.288 25.5885 306.514 25.9957 305.851C26.4029 305.188 26.9616 304.674 27.6719 304.31C28.3821 303.94 29.1894 303.756 30.0938 303.756C31.0076 303.756 31.8125 303.938 32.5085 304.303C33.2093 304.662 33.7562 305.155 34.1491 305.78C34.5421 306.4 34.7386 307.101 34.7386 307.882C34.7386 308.422 34.6368 308.95 34.4332 309.466C34.2344 309.982 33.8864 310.557 33.3892 311.192C32.892 311.821 32.2008 312.586 31.3153 313.486L28.4247 316.511V316.618H34.973V318.5H25.3991ZM37.1969 315.659V313.884L43.4824 303.955H44.8815V306.568H43.9937L39.498 313.685V313.798H48.1131V315.659H37.1969ZM44.0932 318.5V315.119L44.1074 314.31V303.955H46.1884V318.5H44.0932ZM25.3991 342.5V340.909L30.321 335.81C30.8466 335.256 31.2798 334.77 31.6207 334.354C31.9664 333.932 32.2244 333.532 32.3949 333.153C32.5653 332.775 32.6506 332.372 32.6506 331.946C32.6506 331.463 32.5369 331.046 32.3097 330.696C32.0824 330.341 31.7723 330.069 31.3793 329.879C30.9863 329.685 30.5436 329.588 30.0511 329.588C29.5303 329.588 29.0758 329.695 28.6875 329.908C28.2992 330.121 28.0009 330.421 27.7926 330.81C27.5843 331.198 27.4801 331.652 27.4801 332.173H25.3849C25.3849 331.288 25.5885 330.514 25.9957 329.851C26.4029 329.188 26.9616 328.674 27.6719 328.31C28.3821 327.94 29.1894 327.756 30.0938 327.756C31.0076 327.756 31.8125 327.938 32.5085 328.303C33.2093 328.662 33.7562 329.155 34.1491 329.78C34.5421 330.4 34.7386 331.101 34.7386 331.882C34.7386 332.422 34.6368 332.95 34.4332 333.466C34.2344 333.982 33.8864 334.557 33.3892 335.192C32.892 335.821 32.2008 336.586 31.3153 337.486L28.4247 340.511V340.618H34.973V342.5H25.3991ZM42.8787 342.741C41.7565 342.737 40.7977 342.441 40.0023 341.854C39.2068 341.267 38.5984 340.412 38.177 339.29C37.7556 338.168 37.5449 336.816 37.5449 335.234C37.5449 333.658 37.7556 332.311 38.177 331.193C38.6031 330.076 39.2139 329.223 40.0094 328.636C40.8096 328.049 41.766 327.756 42.8787 327.756C43.9914 327.756 44.9455 328.052 45.7409 328.643C46.5364 329.231 47.1448 330.083 47.5662 331.2C47.9923 332.313 48.2054 333.658 48.2054 335.234C48.2054 336.821 47.9947 338.175 47.5733 339.297C47.1519 340.414 46.5435 341.269 45.748 341.861C44.9526 342.448 43.9961 342.741 42.8787 342.741ZM42.8787 340.845C43.8635 340.845 44.633 340.365 45.1869 339.403C45.7456 338.442 46.025 337.053 46.025 335.234C46.025 334.027 45.8972 333.007 45.6415 332.173C45.3905 331.335 45.0283 330.701 44.5548 330.27C44.0861 329.834 43.5274 329.616 42.8787 329.616C41.8986 329.616 41.1292 330.099 40.5705 331.065C40.0117 332.031 39.73 333.421 39.7253 335.234C39.7253 336.446 39.8508 337.472 40.1017 338.31C40.3574 339.143 40.7196 339.775 41.1884 340.206C41.6571 340.632 42.2205 340.845 42.8787 340.845ZM50.8749 342.5V340.909L55.7968 335.81C56.3224 335.256 56.7556 334.77 57.0965 334.354C57.4422 333.932 57.7002 333.532 57.8707 333.153C58.0411 332.775 58.1263 332.372 58.1263 331.946C58.1263 331.463 58.0127 331.046 57.7854 330.696C57.5582 330.341 57.248 330.069 56.855 329.879C56.462 329.685 56.0193 329.588 55.5269 329.588C55.0061 329.588 54.5515 329.695 54.1633 329.908C53.775 330.121 53.4767 330.421 53.2684 330.81C53.0601 331.198 52.9559 331.652 52.9559 332.173H50.8607C50.8607 331.288 51.0643 330.514 51.4715 329.851C51.8787 329.188 52.4374 328.674 53.1477 328.31C53.8579 327.94 54.6652 327.756 55.5695 327.756C56.4834 327.756 57.2883 327.938 57.9843 328.303C58.6851 328.662 59.2319 329.155 59.6249 329.78C60.0179 330.4 60.2144 331.101 60.2144 331.882C60.2144 332.422 60.1126 332.95 59.909 333.466C59.7102 333.982 59.3621 334.557 58.865 335.192C58.3678 335.821 57.6765 336.586 56.7911 337.486L53.9005 340.511V340.618H60.4488V342.5H50.8749ZM62.6727 339.659V337.884L68.9582 327.955H70.3573V330.568H69.4695L64.9738 337.685V337.798H73.5889V339.659H62.6727ZM69.569 342.5V339.119L69.5832 338.31V327.955H71.6641V342.5H69.569Z" fill="#F52A3B"/>
<path d="M224.636 319.121C224.431 318.641 224.082 318.231 223.635 317.943C223.188 317.654 222.663 317.5 222.125 317.5H208.531V291.25C208.531 289.858 207.958 288.522 206.939 287.538C205.919 286.553 204.536 286 203.094 286H175.906C174.464 286 173.081 286.553 172.061 287.538C171.042 288.522 170.469 289.858 170.469 291.25V317.5H156.875C156.337 317.5 155.811 317.653 155.363 317.942C154.916 318.23 154.567 318.64 154.361 319.12C154.155 319.6 154.101 320.128 154.206 320.638C154.312 321.147 154.571 321.615 154.951 321.982L187.576 353.482C187.829 353.726 188.129 353.92 188.459 354.052C188.789 354.184 189.143 354.252 189.5 354.252C189.857 354.252 190.211 354.184 190.541 354.052C190.871 353.92 191.171 353.726 191.424 353.482L224.049 321.982C224.429 321.615 224.687 321.147 224.792 320.638C224.897 320.128 224.843 319.601 224.636 319.121ZM189.5 347.914L163.437 322.75H173.188C173.909 322.75 174.6 322.473 175.11 321.981C175.62 321.489 175.906 320.821 175.906 320.125V291.25H203.094V320.125C203.094 320.821 203.38 321.489 203.89 321.981C204.4 322.473 205.091 322.75 205.813 322.75H215.563L189.5 347.914Z" fill="#334875"/>
<path d="M254 0H390V207H294C271.909 207 254 189.091 254 167V0Z" fill="#FCFA58"/>
<path d="M347.787 118.973C347.626 119.241 347.414 119.475 347.163 119.662C346.912 119.848 346.626 119.982 346.323 120.058C346.019 120.134 345.704 120.149 345.395 120.102C345.086 120.055 344.789 119.948 344.521 119.787L324.375 107.695V129.625C324.375 130.255 324.125 130.859 323.679 131.304C323.234 131.75 322.63 132 322 132C321.37 132 320.766 131.75 320.321 131.304C319.875 130.859 319.625 130.255 319.625 129.625V107.695L299.473 119.787C299.206 119.951 298.908 120.061 298.598 120.109C298.288 120.158 297.971 120.145 297.666 120.07C297.361 119.995 297.074 119.861 296.821 119.675C296.568 119.488 296.355 119.254 296.193 118.985C296.032 118.715 295.925 118.417 295.88 118.106C295.835 117.795 295.851 117.479 295.929 117.174C296.007 116.87 296.144 116.584 296.333 116.334C296.522 116.083 296.759 115.872 297.03 115.713L317.384 103.5L297.03 91.2865C296.759 91.1278 296.522 90.917 296.333 90.6662C296.144 90.4154 296.007 90.1297 295.929 89.8255C295.851 89.5212 295.835 89.2046 295.88 88.8939C295.925 88.5832 296.032 88.2846 296.193 88.0153C296.355 87.746 296.568 87.5114 296.821 87.3252C297.074 87.1389 297.361 87.0045 297.666 86.93C297.971 86.8554 298.288 86.842 298.598 86.8907C298.908 86.9393 299.206 87.049 299.473 87.2134L319.625 99.3051V77.3749C319.625 76.745 319.875 76.141 320.321 75.6956C320.766 75.2502 321.37 74.9999 322 74.9999C322.63 74.9999 323.234 75.2502 323.679 75.6956C324.125 76.141 324.375 76.745 324.375 77.3749V99.3051L344.527 87.2134C344.794 87.049 345.092 86.9393 345.402 86.8907C345.712 86.842 346.029 86.8554 346.334 86.93C346.639 87.0045 346.926 87.1389 347.179 87.3252C347.432 87.5114 347.645 87.746 347.807 88.0153C347.968 88.2846 348.075 88.5832 348.12 88.8939C348.166 89.2046 348.149 89.5212 348.071 89.8255C347.993 90.1297 347.856 90.4154 347.667 90.6662C347.478 90.917 347.241 91.1278 346.97 91.2865L326.616 103.5L346.97 115.713C347.238 115.874 347.472 116.085 347.657 116.336C347.843 116.586 347.978 116.871 348.054 117.174C348.13 117.477 348.145 117.791 348.099 118.1C348.053 118.409 347.947 118.705 347.787 118.973Z" fill="#808CA8"/>
<path d="M254 247C254 224.909 271.909 207 294 207H390V382H254V247Z" fill="#334875"/>
<path d="M0 382H203V491C203 524.137 176.137 551 143 551H0V382Z" fill="#AEEEED"/>
<path d="M128.003 506.866C127.975 505.997 127.374 491.155 119.019 475.658C123.709 469.043 126.226 461.523 126.178 454.105C126.14 444.151 121.53 434.971 112.897 427.53C95.5088 412.543 70.9603 418.102 69.9242 418.348C69.0434 418.588 68.2959 419.161 67.8391 419.947C67.3824 420.732 67.252 421.669 67.4754 422.56C67.6988 423.45 68.2587 424.225 69.037 424.722C69.8153 425.218 70.7514 425.397 71.6481 425.22C71.87 425.174 93.7426 420.277 108.319 432.841C115.329 438.882 119.063 446.214 119.11 454.041C119.142 459.068 117.675 464.196 114.906 468.931C111.862 464.557 108.277 460.579 104.239 457.093C95.4438 449.513 86.1144 445.412 77.2556 445.228C69.4176 445.068 62.2401 448.086 57.591 453.48C55.7644 455.557 54.3763 457.983 53.5075 460.616C52.6387 463.249 52.3066 466.037 52.5305 468.817C53.0385 474.82 56.1076 480.404 61.3962 484.963C78.882 500.033 100.848 494.592 114.064 481.517C117.91 489.534 120.239 498.171 120.934 506.987C120.949 507.45 121.056 507.908 121.248 508.333C121.439 508.759 121.713 509.144 122.052 509.466C122.391 509.789 122.79 510.042 123.225 510.213C123.66 510.383 124.123 510.467 124.587 510.459C125.052 510.452 125.509 510.353 125.932 510.169C126.356 509.984 126.737 509.718 127.055 509.385C127.373 509.052 127.621 508.658 127.784 508.227C127.948 507.796 128.025 507.335 128.009 506.871L128.003 506.866ZM89.9314 486.572C83.8557 487.595 74.769 487.232 65.9738 479.652C57.4418 472.298 58.3276 463.545 62.991 458.134C69.5026 450.579 83.7551 448.695 99.6614 462.404C103.861 466.046 107.498 470.288 110.45 474.989C104.931 481.085 97.4999 485.291 89.9314 486.572Z" fill="#FCFA58"/>
<path d="M203 382H390V502H253C225.386 502 203 479.614 203 452V382Z" fill="#CCD1DC"/>
<path d="M326.188 436C323.555 436.003 320.997 436.887 318.916 438.516C316.834 440.145 315.345 442.425 314.684 445H305.406C303.103 444.995 300.832 444.45 298.772 443.409C296.711 442.368 294.918 440.859 293.531 439L283.768 425.845C286.292 424.635 288.313 422.564 289.475 419.998C290.638 417.431 290.868 414.532 290.124 411.811C289.381 409.089 287.712 406.72 285.411 405.119C283.11 403.519 280.325 402.789 277.544 403.058C274.763 403.328 272.165 404.579 270.207 406.593C268.249 408.606 267.057 411.253 266.839 414.067C266.621 416.882 267.392 419.683 269.016 421.98C270.64 424.277 273.013 425.922 275.719 426.625V457.375C272.92 458.105 270.481 459.842 268.859 462.259C267.237 464.676 266.543 467.609 266.907 470.506C267.271 473.403 268.669 476.067 270.837 477.998C273.006 479.929 275.797 480.994 278.688 480.994C281.578 480.994 284.369 479.929 286.538 477.998C288.706 476.067 290.104 473.403 290.468 470.506C290.832 467.609 290.138 464.676 288.516 462.259C286.894 459.842 284.455 458.105 281.656 457.375V433L288.781 442.6C290.722 445.203 293.233 447.315 296.118 448.773C299.002 450.23 302.181 450.992 305.406 451H314.684C315.239 453.173 316.386 455.145 317.994 456.692C319.603 458.239 321.609 459.3 323.784 459.753C325.959 460.206 328.216 460.034 330.299 459.256C332.382 458.477 334.207 457.125 335.568 455.351C336.928 453.577 337.769 451.453 337.995 449.221C338.221 446.988 337.823 444.737 336.846 442.721C335.869 440.706 334.352 439.008 332.468 437.82C330.584 436.632 328.408 436.001 326.188 436ZM272.75 415C272.75 413.813 273.098 412.653 273.751 411.667C274.403 410.68 275.33 409.911 276.415 409.457C277.5 409.003 278.694 408.884 279.846 409.115C280.998 409.347 282.056 409.918 282.886 410.757C283.716 411.596 284.282 412.666 284.511 413.829C284.74 414.993 284.622 416.2 284.173 417.296C283.724 418.392 282.963 419.33 281.986 419.989C281.01 420.648 279.862 421 278.688 421C277.113 421 275.603 420.368 274.489 419.243C273.376 418.117 272.75 416.591 272.75 415ZM284.625 469C284.625 470.187 284.277 471.347 283.624 472.333C282.972 473.32 282.045 474.089 280.96 474.543C279.875 474.997 278.681 475.116 277.529 474.885C276.377 474.653 275.319 474.082 274.489 473.243C273.659 472.404 273.093 471.334 272.864 470.171C272.635 469.007 272.753 467.8 273.202 466.704C273.651 465.608 274.412 464.67 275.389 464.011C276.365 463.352 277.513 463 278.688 463C280.262 463 281.772 463.632 282.886 464.757C283.999 465.883 284.625 467.409 284.625 469ZM326.188 454C325.013 454 323.865 453.648 322.889 452.989C321.912 452.33 321.151 451.392 320.702 450.296C320.253 449.2 320.135 447.993 320.364 446.829C320.593 445.666 321.159 444.596 321.989 443.757C322.819 442.918 323.877 442.347 325.029 442.115C326.181 441.884 327.375 442.003 328.46 442.457C329.545 442.911 330.472 443.68 331.124 444.667C331.777 445.653 332.125 446.813 332.125 448C332.125 449.591 331.499 451.117 330.386 452.243C329.272 453.368 327.762 454 326.188 454Z" fill="#F0F3F4"/>
<path d="M0 551H122C138.569 551 152 564.431 152 581V649C152 665.569 138.569 679 122 679H30C13.4315 679 0 665.569 0 649V551Z" fill="#334875"/>
<path d="M38.2286 618C39.7383 619.242 40.9548 620.802 41.7911 622.569C43.9286 626.978 43.9286 632.366 43.9286 637.594C43.9286 648.419 44.3739 653.625 54.6161 653.625C55.5609 653.625 56.4671 654 57.1352 654.668C57.8033 655.337 58.1786 656.243 58.1786 657.188C58.1786 658.132 57.8033 659.038 57.1352 659.707C56.4671 660.375 55.5609 660.75 54.6161 660.75C46.832 660.75 41.5595 658.016 38.9411 652.619C36.8036 648.21 36.8036 642.822 36.8036 637.594C36.8036 626.768 36.3583 621.563 26.1161 621.563C25.1713 621.563 24.2651 621.187 23.597 620.519C22.9289 619.851 22.5536 618.945 22.5536 618C22.5536 617.055 22.9289 616.149 23.597 615.481C24.2651 614.813 25.1713 614.438 26.1161 614.438C36.3583 614.438 36.8036 609.232 36.8036 598.406C36.8036 593.187 36.8036 587.79 38.9411 583.381C41.5684 577.984 46.8409 575.25 54.625 575.25C55.5698 575.25 56.476 575.625 57.1441 576.293C57.8122 576.962 58.1875 577.868 58.1875 578.813C58.1875 579.757 57.8122 580.663 57.1441 581.332C56.476 582 55.5698 582.375 54.625 582.375C44.3828 582.375 43.9375 587.581 43.9375 598.406C43.9375 603.625 43.9375 609.023 41.8 613.431C40.9612 615.199 39.7415 616.759 38.2286 618ZM125.875 614.438C115.633 614.438 115.187 609.232 115.187 598.406C115.187 593.187 115.187 587.79 113.05 583.381C110.432 577.984 105.159 575.25 97.375 575.25C96.4302 575.25 95.524 575.625 94.8559 576.293C94.1878 576.962 93.8125 577.868 93.8125 578.813C93.8125 579.757 94.1878 580.663 94.8559 581.332C95.524 582 96.4302 582.375 97.375 582.375C107.617 582.375 108.062 587.581 108.062 598.406C108.062 603.625 108.062 609.023 110.2 613.431C111.036 615.198 112.253 616.758 113.762 618C112.253 619.242 111.036 620.802 110.2 622.569C108.062 626.978 108.062 632.366 108.062 637.594C108.062 648.419 107.617 653.625 97.375 653.625C96.4302 653.625 95.524 654 94.8559 654.668C94.1878 655.337 93.8125 656.243 93.8125 657.188C93.8125 658.132 94.1878 659.038 94.8559 659.707C95.524 660.375 96.4302 660.75 97.375 660.75C105.159 660.75 110.432 658.016 113.05 652.619C115.187 648.21 115.187 642.822 115.187 637.594C115.187 626.768 115.633 621.563 125.875 621.563C126.82 621.563 127.726 621.187 128.394 620.519C129.062 619.851 129.437 618.945 129.437 618C129.437 617.055 129.062 616.149 128.394 615.481C127.726 614.813 126.82 614.438 125.875 614.438Z" fill="#C5EBD8"/>
</svg>
