<svg width="592" height="679" viewBox="0 0 592 679" fill="none" xmlns="http://www.w3.org/2000/svg">
<rect width="592" height="679" fill="#F0F3F4"/>
<path d="M60.6193 51.0511C60.392 48.7595 59.4167 46.9792 57.6932 45.7102C55.9697 44.4413 53.6307 43.8068 50.6761 43.8068C48.6686 43.8068 46.9735 44.0909 45.5909 44.6591C44.2083 45.2083 43.1477 45.9754 42.4091 46.9602C41.6894 47.9451 41.3295 49.0625 41.3295 50.3125C41.2917 51.3542 41.5095 52.2633 41.983 53.0398C42.4754 53.8163 43.1477 54.4886 44 55.0568C44.8523 55.6061 45.8371 56.089 46.9545 56.5057C48.072 56.9034 49.2652 57.2443 50.5341 57.5284L55.7614 58.7784C58.2992 59.3466 60.6288 60.1042 62.75 61.0511C64.8712 61.9981 66.7083 63.1629 68.2614 64.5455C69.8144 65.928 71.017 67.5568 71.8693 69.4318C72.7405 71.3068 73.1856 73.4564 73.2045 75.8807C73.1856 79.4413 72.2765 82.5284 70.4773 85.142C68.697 87.7367 66.1212 89.7538 62.75 91.1932C59.3977 92.6136 55.3542 93.3239 50.6193 93.3239C45.9223 93.3239 41.8314 92.6042 38.3466 91.1648C34.8807 89.7254 32.1723 87.5947 30.2216 84.7727C28.2898 81.9318 27.2765 78.4186 27.1818 74.233H39.0852C39.2178 76.1837 39.7765 77.8125 40.7614 79.1193C41.7652 80.4072 43.1004 81.3826 44.767 82.0455C46.4527 82.6894 48.3561 83.0114 50.4773 83.0114C52.5606 83.0114 54.3693 82.7083 55.9034 82.1023C57.4564 81.4962 58.6591 80.6534 59.5114 79.5739C60.3636 78.4943 60.7898 77.2538 60.7898 75.8523C60.7898 74.5455 60.4015 73.447 59.625 72.5568C58.8674 71.6667 57.75 70.9091 56.2727 70.2841C54.8144 69.6591 53.0246 69.0909 50.9034 68.5795L44.5682 66.9886C39.6629 65.7955 35.7898 63.9299 32.9489 61.392C30.108 58.8542 28.697 55.4356 28.7159 51.1364C28.697 47.6136 29.6345 44.536 31.5284 41.9034C33.4413 39.2708 36.0644 37.2159 39.3977 35.7386C42.7311 34.2614 46.5189 33.5227 50.7614 33.5227C55.0795 33.5227 58.8485 34.2614 62.0682 35.7386C65.3068 37.2159 67.8258 39.2708 69.625 41.9034C71.4242 44.536 72.3523 47.5852 72.4091 51.0511H60.6193ZM89.179 92.5H75.9972L96.0824 34.3182H111.935L131.991 92.5H118.81L104.236 47.6136H103.781L89.179 92.5ZM88.3551 69.6307H119.491V79.233H88.3551V69.6307ZM141.24 34.3182L155.303 78.5227H155.842L169.933 34.3182H183.57L163.513 92.5H147.661L127.575 34.3182H141.24ZM189.572 92.5V34.3182H228.777V44.4602H201.874V58.3239H226.76V68.4659H201.874V82.358H228.891V92.5H189.572ZM26.8409 125.46V115.318H74.625V125.46H56.8125V173.5H44.6534V125.46H26.8409ZM81.4943 173.5V115.318H93.7955V139.324H118.767V115.318H131.04V173.5H118.767V149.466H93.7955V173.5H81.4943ZM140.182 173.5V115.318H179.386V125.46H152.483V139.324H177.369V149.466H152.483V163.358H179.5V173.5H140.182ZM49.6818 254.5H29.0568V196.318H49.8523C55.7045 196.318 60.7424 197.483 64.9659 199.812C69.1894 202.123 72.4375 205.447 74.7102 209.784C77.0019 214.121 78.1477 219.311 78.1477 225.352C78.1477 231.413 77.0019 236.621 74.7102 240.977C72.4375 245.333 69.1705 248.676 64.9091 251.006C60.6667 253.335 55.5909 254.5 49.6818 254.5ZM41.358 243.96H49.1705C52.8068 243.96 55.8655 243.316 58.3466 242.028C60.8466 240.722 62.7216 238.705 63.9716 235.977C65.2405 233.231 65.875 229.689 65.875 225.352C65.875 221.053 65.2405 217.54 63.9716 214.812C62.7216 212.085 60.8561 210.078 58.375 208.79C55.8939 207.502 52.8352 206.858 49.1989 206.858H41.358V243.96ZM93.0071 254.5H79.8253L99.9105 196.318H115.763L135.82 254.5H122.638L108.064 209.614H107.609L93.0071 254.5ZM92.1832 231.631H123.32V241.233H92.1832V231.631ZM132.497 206.46V196.318H180.281V206.46H162.469V254.5H150.31V206.46H132.497ZM187.151 254.5V196.318H226.355V206.46H199.452V220.324H224.338V230.466H199.452V244.358H226.469V254.5H187.151Z" fill="#F52A3B"/>
<path d="M26.358 294.5H24.5114L29.8523 279.955H31.6705L37.0114 294.5H35.1648L30.8182 282.256H30.7045L26.358 294.5ZM27.0398 288.818H34.483V290.381H27.0398V288.818ZM39.1997 298.591V283.591H40.819V285.324H41.0179C41.141 285.134 41.3115 284.893 41.5293 284.599C41.7518 284.301 42.069 284.036 42.481 283.804C42.8976 283.567 43.4611 283.449 44.1713 283.449C45.0899 283.449 45.8995 283.679 46.6003 284.138C47.301 284.597 47.8479 285.248 48.2409 286.091C48.6339 286.934 48.8304 287.928 48.8304 289.074C48.8304 290.229 48.6339 291.231 48.2409 292.078C47.8479 292.921 47.3034 293.574 46.6074 294.038C45.9114 294.498 45.1088 294.727 44.1997 294.727C43.499 294.727 42.9379 294.611 42.5165 294.379C42.0951 294.143 41.7707 293.875 41.5435 293.577C41.3162 293.274 41.141 293.023 41.0179 292.824H40.8759V298.591H39.1997ZM40.8474 289.045C40.8474 289.869 40.9682 290.596 41.2097 291.226C41.4511 291.851 41.8039 292.341 42.2679 292.696C42.7319 293.046 43.3001 293.222 43.9724 293.222C44.6732 293.222 45.258 293.037 45.7267 292.668C46.2002 292.294 46.5553 291.792 46.792 291.162C47.0335 290.527 47.1543 289.822 47.1543 289.045C47.1543 288.278 47.0359 287.587 46.7991 286.972C46.5671 286.351 46.2144 285.861 45.7409 285.501C45.2722 285.137 44.6827 284.955 43.9724 284.955C43.2906 284.955 42.7177 285.127 42.2537 285.473C41.7897 285.814 41.4393 286.292 41.2026 286.908C40.9658 287.518 40.8474 288.231 40.8474 289.045ZM51.5372 294.5V283.591H53.1565V285.239H53.2702C53.469 284.699 53.8289 284.261 54.3497 283.925C54.8705 283.589 55.4577 283.42 56.1111 283.42C56.2342 283.42 56.3881 283.423 56.5727 283.428C56.7574 283.432 56.8971 283.439 56.9918 283.449V285.153C56.9349 285.139 56.8047 285.118 56.6011 285.089C56.4023 285.056 56.1916 285.04 55.969 285.04C55.4387 285.04 54.9652 285.151 54.5486 285.374C54.1366 285.591 53.8099 285.894 53.5685 286.283C53.3317 286.666 53.2134 287.104 53.2134 287.597V294.5H51.5372ZM59.1286 294.5V283.591H60.8048V294.5H59.1286ZM59.9809 281.773C59.6542 281.773 59.3725 281.661 59.1357 281.439C58.9037 281.216 58.7877 280.949 58.7877 280.636C58.7877 280.324 58.9037 280.056 59.1357 279.834C59.3725 279.611 59.6542 279.5 59.9809 279.5C60.3076 279.5 60.587 279.611 60.819 279.834C61.0557 280.056 61.1741 280.324 61.1741 280.636C61.1741 280.949 61.0557 281.216 60.819 281.439C60.587 281.661 60.3076 281.773 59.9809 281.773ZM65.7009 279.955V294.5H64.0247V279.955H65.7009ZM25.5057 318.5V317.222L30.3068 311.966C30.8703 311.35 31.3343 310.815 31.6989 310.361C32.0634 309.902 32.3333 309.471 32.5085 309.068C32.6884 308.661 32.7784 308.235 32.7784 307.79C32.7784 307.278 32.6553 306.836 32.4091 306.462C32.1676 306.088 31.8362 305.799 31.4148 305.595C30.9934 305.392 30.5199 305.29 29.9943 305.29C29.4356 305.29 28.9479 305.406 28.5312 305.638C28.1193 305.865 27.7997 306.185 27.5724 306.597C27.3499 307.009 27.2386 307.491 27.2386 308.045H25.5625C25.5625 307.193 25.759 306.445 26.152 305.801C26.545 305.157 27.08 304.655 27.7571 304.295C28.4389 303.936 29.2036 303.756 30.0511 303.756C30.9034 303.756 31.6586 303.936 32.3168 304.295C32.9749 304.655 33.491 305.141 33.8651 305.751C34.2391 306.362 34.4261 307.042 34.4261 307.79C34.4261 308.325 34.3291 308.848 34.1349 309.359C33.9455 309.866 33.6141 310.432 33.1406 311.057C32.6719 311.677 32.0208 312.435 31.1875 313.33L27.9205 316.824V316.938H34.6818V318.5H25.5057ZM37.1116 315.517V314.068L43.5037 303.955H44.5548V306.199H43.8446L39.0151 313.841V313.955H47.623V315.517H37.1116ZM43.9582 318.5V315.077V314.402V303.955H45.6344V318.5H43.9582ZM25.5057 342.5V341.222L30.3068 335.966C30.8703 335.35 31.3343 334.815 31.6989 334.361C32.0634 333.902 32.3333 333.471 32.5085 333.068C32.6884 332.661 32.7784 332.235 32.7784 331.79C32.7784 331.278 32.6553 330.836 32.4091 330.462C32.1676 330.088 31.8362 329.799 31.4148 329.595C30.9934 329.392 30.5199 329.29 29.9943 329.29C29.4356 329.29 28.9479 329.406 28.5312 329.638C28.1193 329.865 27.7997 330.185 27.5724 330.597C27.3499 331.009 27.2386 331.491 27.2386 332.045H25.5625C25.5625 331.193 25.759 330.445 26.152 329.801C26.545 329.157 27.08 328.655 27.7571 328.295C28.4389 327.936 29.2036 327.756 30.0511 327.756C30.9034 327.756 31.6586 327.936 32.3168 328.295C32.9749 328.655 33.491 329.141 33.8651 329.751C34.2391 330.362 34.4261 331.042 34.4261 331.79C34.4261 332.325 34.3291 332.848 34.1349 333.359C33.9455 333.866 33.6141 334.432 33.1406 335.057C32.6719 335.677 32.0208 336.435 31.1875 337.33L27.9205 340.824V340.938H34.6818V342.5H25.5057ZM42.5094 342.699C41.4393 342.699 40.5278 342.408 39.775 341.825C39.0222 341.238 38.4469 340.388 38.0491 339.276C37.6514 338.158 37.4526 336.809 37.4526 335.227C37.4526 333.655 37.6514 332.313 38.0491 331.2C38.4516 330.083 39.0293 329.231 39.7821 328.643C40.5397 328.052 41.4488 327.756 42.5094 327.756C43.57 327.756 44.4767 328.052 45.2295 328.643C45.9871 329.231 46.5648 330.083 46.9625 331.2C47.365 332.313 47.5662 333.655 47.5662 335.227C47.5662 336.809 47.3673 338.158 46.9696 339.276C46.5719 340.388 45.9966 341.238 45.2437 341.825C44.4909 342.408 43.5795 342.699 42.5094 342.699ZM42.5094 341.136C43.57 341.136 44.3938 340.625 44.981 339.602C45.5681 338.58 45.8616 337.121 45.8616 335.227C45.8616 333.968 45.7267 332.895 45.4568 332.01C45.1917 331.125 44.8081 330.45 44.3062 329.986C43.8091 329.522 43.2101 329.29 42.5094 329.29C41.4582 329.29 40.6367 329.808 40.0449 330.845C39.453 331.877 39.1571 333.338 39.1571 335.227C39.1571 336.487 39.2897 337.557 39.5548 338.438C39.82 339.318 40.2011 339.988 40.6983 340.447C41.2002 340.907 41.8039 341.136 42.5094 341.136ZM50.4151 342.5V341.222L55.2162 335.966C55.7796 335.35 56.2437 334.815 56.6082 334.361C56.9728 333.902 57.2427 333.471 57.4179 333.068C57.5978 332.661 57.6878 332.235 57.6878 331.79C57.6878 331.278 57.5647 330.836 57.3185 330.462C57.077 330.088 56.7455 329.799 56.3241 329.595C55.9027 329.392 55.4293 329.29 54.9037 329.29C54.345 329.29 53.8573 329.406 53.4406 329.638C53.0287 329.865 52.7091 330.185 52.4818 330.597C52.2593 331.009 52.148 331.491 52.148 332.045H50.4719C50.4719 331.193 50.6684 330.445 51.0614 329.801C51.4544 329.157 51.9894 328.655 52.6665 328.295C53.3483 327.936 54.113 327.756 54.9605 327.756C55.8128 327.756 56.568 327.936 57.2261 328.295C57.8843 328.655 58.4004 329.141 58.7744 329.751C59.1485 330.362 59.3355 331.042 59.3355 331.79C59.3355 332.325 59.2384 332.848 59.0443 333.359C58.8549 333.866 58.5235 334.432 58.05 335.057C57.5812 335.677 56.9302 336.435 56.0969 337.33L52.8298 340.824V340.938H59.5912V342.5H50.4151ZM62.021 339.517V338.068L68.4131 327.955H69.4642V330.199H68.754L63.9244 337.841V337.955H72.5324V339.517H62.021ZM68.8676 342.5V339.077V338.402V327.955H70.5438V342.5H68.8676Z" fill="#F52A3B"/>
<path d="M224.636 319.121C224.431 318.641 224.082 318.231 223.635 317.943C223.188 317.654 222.663 317.5 222.125 317.5H208.531V291.25C208.531 289.858 207.958 288.522 206.939 287.538C205.919 286.553 204.536 286 203.094 286H175.906C174.464 286 173.081 286.553 172.061 287.538C171.042 288.522 170.469 289.858 170.469 291.25V317.5H156.875C156.337 317.5 155.811 317.653 155.363 317.942C154.916 318.23 154.567 318.64 154.361 319.12C154.155 319.6 154.101 320.128 154.206 320.638C154.311 321.147 154.571 321.615 154.951 321.982L187.576 353.482C187.829 353.726 188.129 353.92 188.459 354.052C188.789 354.184 189.143 354.252 189.5 354.252C189.857 354.252 190.211 354.184 190.541 354.052C190.871 353.92 191.171 353.726 191.423 353.482L224.048 321.982C224.429 321.615 224.687 321.147 224.792 320.638C224.897 320.128 224.842 319.601 224.636 319.121ZM189.5 347.914L163.437 322.75H173.187C173.909 322.75 174.6 322.473 175.11 321.981C175.62 321.489 175.906 320.821 175.906 320.125V291.25H203.094V320.125C203.094 320.821 203.38 321.489 203.89 321.981C204.4 322.473 205.091 322.75 205.812 322.75H215.563L189.5 347.914Z" fill="#334875"/>
<path d="M296 0H592V207H336C313.909 207 296 189.091 296 167V0Z" fill="#FCFA58"/>
<path d="M469.787 118.973C469.626 119.241 469.414 119.475 469.163 119.662C468.912 119.848 468.626 119.983 468.323 120.058C468.019 120.134 467.704 120.149 467.395 120.102C467.086 120.055 466.789 119.948 466.521 119.787L446.375 107.695V129.625C446.375 130.255 446.125 130.859 445.679 131.304C445.234 131.75 444.63 132 444 132C443.37 132 442.766 131.75 442.321 131.304C441.875 130.859 441.625 130.255 441.625 129.625V107.695L421.473 119.787C421.206 119.951 420.908 120.061 420.598 120.109C420.288 120.158 419.971 120.145 419.666 120.07C419.361 119.995 419.074 119.861 418.821 119.675C418.568 119.488 418.355 119.254 418.193 118.985C418.032 118.715 417.925 118.417 417.88 118.106C417.835 117.795 417.851 117.479 417.929 117.174C418.007 116.87 418.144 116.584 418.333 116.334C418.522 116.083 418.759 115.872 419.03 115.713L439.384 103.5L419.03 91.2866C418.759 91.1279 418.522 90.9171 418.333 90.6663C418.144 90.4155 418.007 90.1297 417.929 89.8255C417.851 89.5213 417.835 89.2047 417.88 88.894C417.925 88.5833 418.032 88.2846 418.193 88.0154C418.355 87.7461 418.568 87.5115 418.821 87.3252C419.074 87.1389 419.361 87.0046 419.666 86.93C419.971 86.8554 420.288 86.8421 420.598 86.8907C420.908 86.9394 421.206 87.0491 421.473 87.2134L441.625 99.3052V77.375C441.625 76.7451 441.875 76.141 442.321 75.6956C442.766 75.2502 443.37 75 444 75C444.63 75 445.234 75.2502 445.679 75.6956C446.125 76.141 446.375 76.7451 446.375 77.375V99.3052L466.527 87.2134C466.794 87.0491 467.092 86.9394 467.402 86.8907C467.712 86.8421 468.029 86.8554 468.334 86.93C468.639 87.0046 468.926 87.1389 469.179 87.3252C469.432 87.5115 469.645 87.7461 469.807 88.0154C469.968 88.2846 470.075 88.5833 470.12 88.894C470.166 89.2047 470.149 89.5213 470.071 89.8255C469.993 90.1297 469.856 90.4155 469.667 90.6663C469.478 90.9171 469.241 91.1279 468.97 91.2866L448.616 103.5L468.97 115.713C469.238 115.874 469.472 116.085 469.657 116.336C469.843 116.587 469.978 116.871 470.054 117.174C470.13 117.477 470.145 117.792 470.099 118.1C470.053 118.409 469.947 118.706 469.787 118.973Z" fill="#808CA8"/>
<path d="M296 247C296 224.909 313.909 207 336 207H592V382H296V247Z" fill="#334875"/>
<path d="M0 382H203V491C203 524.137 176.137 551 143 551H0V382Z" fill="#AEEEED"/>
<path d="M133.682 509.644C133.655 508.775 133.054 493.933 124.699 478.436C129.388 471.821 131.906 464.301 131.858 456.883C131.82 446.929 127.21 437.749 118.577 430.308C101.189 415.321 76.6401 420.88 75.604 421.126C74.7232 421.366 73.9757 421.939 73.5189 422.725C73.0622 423.51 72.9318 424.447 73.1552 425.338C73.3786 426.228 73.9385 427.003 74.7168 427.5C75.4951 427.996 76.4312 428.175 77.3279 427.998C77.5498 427.952 99.4224 423.055 113.999 435.619C121.009 441.66 124.743 448.992 124.79 456.819C124.822 461.846 123.355 466.974 120.586 471.709C117.541 467.335 113.957 463.357 109.919 459.871C101.124 452.291 91.7942 448.19 82.9354 448.006C75.0974 447.846 67.9199 450.864 63.2708 456.258C61.4442 458.335 60.0561 460.761 59.1873 463.394C58.3185 466.027 57.9864 468.815 58.2103 471.595C58.7183 477.598 61.7874 483.182 67.076 487.741C84.5618 502.811 106.527 497.37 119.744 484.295C123.59 492.312 125.919 500.949 126.614 509.765C126.629 510.228 126.736 510.686 126.927 511.111C127.119 511.537 127.393 511.922 127.732 512.244C128.071 512.567 128.47 512.82 128.905 512.991C129.34 513.161 129.803 513.245 130.267 513.237C130.732 513.23 131.189 513.131 131.612 512.947C132.036 512.762 132.417 512.496 132.735 512.163C133.053 511.829 133.3 511.436 133.464 511.005C133.628 510.574 133.704 510.113 133.689 509.649L133.682 509.644ZM95.6112 489.35C89.5355 490.373 80.4488 490.01 71.6536 482.43C63.1216 475.076 64.0074 466.323 68.6708 460.912C75.1824 453.357 89.435 451.473 105.341 465.182C109.541 468.824 113.178 473.066 116.129 477.767C110.61 483.863 103.18 488.069 95.6112 489.35Z" fill="#FCFA58"/>
<path d="M203 382H592V502H253C225.386 502 203 479.614 203 452V382Z" fill="#CCD1DC"/>
<path d="M427.188 436C424.555 436.003 421.997 436.887 419.916 438.516C417.834 440.145 416.346 442.425 415.684 445H406.406C404.103 444.995 401.832 444.45 399.772 443.409C397.711 442.368 395.918 440.859 394.531 439L384.768 425.845C387.292 424.635 389.313 422.564 390.475 419.998C391.638 417.431 391.868 414.532 391.124 411.811C390.381 409.089 388.712 406.72 386.411 405.119C384.11 403.519 381.325 402.789 378.544 403.058C375.763 403.328 373.165 404.579 371.207 406.593C369.249 408.606 368.057 411.253 367.839 414.067C367.621 416.882 368.392 419.683 370.016 421.98C371.64 424.277 374.013 425.922 376.719 426.625V457.375C373.92 458.105 371.481 459.842 369.859 462.259C368.237 464.676 367.543 467.609 367.907 470.506C368.271 473.403 369.669 476.067 371.838 477.998C374.006 479.929 376.797 480.994 379.688 480.994C382.578 480.994 385.369 479.929 387.538 477.998C389.706 476.067 391.104 473.403 391.468 470.506C391.832 467.609 391.138 464.676 389.516 462.259C387.894 459.842 385.455 458.105 382.656 457.375V433L389.781 442.6C391.722 445.203 394.233 447.315 397.118 448.773C400.002 450.23 403.181 450.992 406.406 451H415.684C416.239 453.173 417.386 455.145 418.995 456.692C420.603 458.239 422.609 459.3 424.784 459.753C426.959 460.206 429.216 460.034 431.299 459.256C433.382 458.477 435.207 457.125 436.568 455.351C437.928 453.577 438.769 451.453 438.995 449.221C439.221 446.988 438.823 444.737 437.846 442.721C436.869 440.706 435.352 439.008 433.468 437.82C431.584 436.632 429.408 436.001 427.188 436ZM373.75 415C373.75 413.813 374.098 412.653 374.751 411.667C375.403 410.68 376.33 409.911 377.415 409.457C378.5 409.003 379.694 408.884 380.846 409.115C381.998 409.347 383.056 409.918 383.886 410.757C384.716 411.596 385.282 412.666 385.511 413.829C385.74 414.993 385.623 416.2 385.173 417.296C384.724 418.392 383.963 419.33 382.986 419.989C382.01 420.648 380.862 421 379.688 421C378.113 421 376.603 420.368 375.489 419.243C374.376 418.117 373.75 416.591 373.75 415ZM385.625 469C385.625 470.187 385.277 471.347 384.624 472.333C383.972 473.32 383.045 474.089 381.96 474.543C380.875 474.997 379.681 475.116 378.529 474.885C377.377 474.653 376.32 474.082 375.489 473.243C374.659 472.404 374.093 471.334 373.864 470.171C373.635 469.007 373.753 467.8 374.202 466.704C374.651 465.608 375.412 464.67 376.389 464.011C377.365 463.352 378.513 463 379.688 463C381.262 463 382.773 463.632 383.886 464.757C385 465.883 385.625 467.409 385.625 469ZM427.188 454C426.013 454 424.865 453.648 423.889 452.989C422.912 452.33 422.151 451.392 421.702 450.296C421.253 449.2 421.135 447.993 421.364 446.829C421.593 445.666 422.159 444.596 422.989 443.757C423.82 442.918 424.877 442.347 426.029 442.115C427.181 441.884 428.375 442.003 429.46 442.457C430.545 442.911 431.472 443.68 432.124 444.667C432.777 445.653 433.125 446.813 433.125 448C433.125 449.591 432.5 451.117 431.386 452.243C430.273 453.368 428.762 454 427.188 454Z" fill="#F0F3F4"/>
<path d="M0 551H122C138.569 551 152 564.431 152 581V649C152 665.569 138.569 679 122 679H30C13.4315 679 0 665.569 0 649V551Z" fill="#334875"/>
<path d="M38.2285 618C39.7382 619.242 40.9547 620.802 41.791 622.569C43.9285 626.977 43.9285 632.366 43.9285 637.594C43.9285 648.419 44.3738 653.625 54.616 653.625C55.5608 653.625 56.4669 654 57.135 654.668C57.8031 655.337 58.1785 656.243 58.1785 657.188C58.1785 658.132 57.8031 659.038 57.135 659.707C56.4669 660.375 55.5608 660.75 54.616 660.75C46.8319 660.75 41.5594 658.016 38.941 652.619C36.8035 648.21 36.8035 642.822 36.8035 637.594C36.8035 626.768 36.3582 621.562 26.116 621.562C25.1711 621.562 24.265 621.187 23.5969 620.519C22.9288 619.851 22.5535 618.945 22.5535 618C22.5535 617.055 22.9288 616.149 23.5969 615.481C24.265 614.813 25.1711 614.438 26.116 614.438C36.3582 614.438 36.8035 609.232 36.8035 598.406C36.8035 593.187 36.8035 587.79 38.941 583.381C41.5683 577.984 46.8408 575.25 54.6249 575.25C55.5697 575.25 56.4758 575.625 57.1439 576.293C57.812 576.962 58.1874 577.868 58.1874 578.812C58.1874 579.757 57.812 580.663 57.1439 581.332C56.4758 582 55.5697 582.375 54.6249 582.375C44.3827 582.375 43.9374 587.581 43.9374 598.406C43.9374 603.625 43.9374 609.022 41.7999 613.431C40.9611 615.199 39.7414 616.759 38.2285 618ZM125.875 614.438C115.633 614.438 115.187 609.232 115.187 598.406C115.187 593.187 115.187 587.79 113.05 583.381C110.431 577.984 105.159 575.25 97.3749 575.25C96.43 575.25 95.5239 575.625 94.8558 576.293C94.1877 576.962 93.8124 577.868 93.8124 578.812C93.8124 579.757 94.1877 580.663 94.8558 581.332C95.5239 582 96.43 582.375 97.3749 582.375C107.617 582.375 108.062 587.581 108.062 598.406C108.062 603.625 108.062 609.022 110.2 613.431C111.036 615.198 112.253 616.758 113.762 618C112.253 619.242 111.036 620.802 110.2 622.569C108.062 626.977 108.062 632.366 108.062 637.594C108.062 648.419 107.617 653.625 97.3749 653.625C96.43 653.625 95.5239 654 94.8558 654.668C94.1877 655.337 93.8124 656.243 93.8124 657.188C93.8124 658.132 94.1877 659.038 94.8558 659.707C95.5239 660.375 96.43 660.75 97.3749 660.75C105.159 660.75 110.431 658.016 113.05 652.619C115.187 648.21 115.187 642.822 115.187 637.594C115.187 626.768 115.633 621.562 125.875 621.562C126.82 621.562 127.726 621.187 128.394 620.519C129.062 619.851 129.437 618.945 129.437 618C129.437 617.055 129.062 616.149 128.394 615.481C127.726 614.813 126.82 614.438 125.875 614.438Z" fill="#C5EBD8"/>
</svg>
