<svg width="52" height="52" viewBox="0 0 52 52" fill="none" xmlns="http://www.w3.org/2000/svg">
<g id="Maps and travel">
<path id="Vector" d="M44.4498 21.0783L28.1998 5.74643C28.1919 5.7395 28.1844 5.73203 28.1775 5.72409C27.5792 5.17998 26.7996 4.87848 25.9909 4.87848C25.1822 4.87848 24.4025 5.17998 23.8042 5.72409L23.7819 5.74643L7.55016 21.0783C7.21906 21.3828 6.95476 21.7526 6.774 22.1645C6.59323 22.5764 6.49993 23.0213 6.5 23.4711V42.25C6.5 43.112 6.84241 43.9386 7.4519 44.5481C8.0614 45.1576 8.88805 45.5 9.75 45.5H19.5C20.362 45.5 21.1886 45.1576 21.7981 44.5481C22.4076 43.9386 22.75 43.112 22.75 42.25V32.5H29.25V42.25C29.25 43.112 29.5924 43.9386 30.2019 44.5481C30.8114 45.1576 31.638 45.5 32.5 45.5H42.25C43.112 45.5 43.9386 45.1576 44.5481 44.5481C45.1576 43.9386 45.5 43.112 45.5 42.25V23.4711C45.5001 23.0213 45.4068 22.5764 45.226 22.1645C45.0452 21.7526 44.7809 21.3828 44.4498 21.0783ZM42.25 42.25H32.5V32.5C32.5 31.6381 32.1576 30.8114 31.5481 30.2019C30.9386 29.5924 30.112 29.25 29.25 29.25H22.75C21.888 29.25 21.0614 29.5924 20.4519 30.2019C19.8424 30.8114 19.5 31.6381 19.5 32.5V42.25H9.75V23.4711L9.77234 23.4508L26 8.12502L42.2297 23.4467L42.252 23.4671L42.25 42.25Z" fill="white"/>
</g>
</svg>
