<svg width="32" height="33" viewBox="0 0 32 33" fill="none" xmlns="http://www.w3.org/2000/svg">
<g id="Brands">
<path id="Vector" d="M27 3.45068H5C4.46957 3.45068 3.96086 3.6614 3.58579 4.03647C3.21071 4.41154 3 4.92025 3 5.45068V27.4507C3 27.9811 3.21071 28.4898 3.58579 28.8649C3.96086 29.24 4.46957 29.4507 5 29.4507H27C27.5304 29.4507 28.0391 29.24 28.4142 28.8649C28.7893 28.4898 29 27.9811 29 27.4507V5.45068C29 4.92025 28.7893 4.41154 28.4142 4.03647C28.0391 3.6614 27.5304 3.45068 27 3.45068ZM27 27.4507H5V5.45068H27V27.4507ZM12 14.4507V22.4507C12 22.7159 11.8946 22.9703 11.7071 23.1578C11.5196 23.3453 11.2652 23.4507 11 23.4507C10.7348 23.4507 10.4804 23.3453 10.2929 23.1578C10.1054 22.9703 10 22.7159 10 22.4507V14.4507C10 14.1855 10.1054 13.9311 10.2929 13.7436C10.4804 13.556 10.7348 13.4507 11 13.4507C11.2652 13.4507 11.5196 13.556 11.7071 13.7436C11.8946 13.9311 12 14.1855 12 14.4507ZM23 17.9507V22.4507C23 22.7159 22.8946 22.9703 22.7071 23.1578C22.5196 23.3453 22.2652 23.4507 22 23.4507C21.7348 23.4507 21.4804 23.3453 21.2929 23.1578C21.1054 22.9703 21 22.7159 21 22.4507V17.9507C21 17.2876 20.7366 16.6518 20.2678 16.1829C19.7989 15.7141 19.163 15.4507 18.5 15.4507C17.837 15.4507 17.2011 15.7141 16.7322 16.1829C16.2634 16.6518 16 17.2876 16 17.9507V22.4507C16 22.7159 15.8946 22.9703 15.7071 23.1578C15.5196 23.3453 15.2652 23.4507 15 23.4507C14.7348 23.4507 14.4804 23.3453 14.2929 23.1578C14.1054 22.9703 14 22.7159 14 22.4507V14.4507C14.0012 14.2057 14.0923 13.9698 14.256 13.7875C14.4197 13.6053 14.6446 13.4895 14.888 13.462C15.1314 13.4346 15.3764 13.4975 15.5765 13.6387C15.7767 13.7799 15.918 13.9897 15.9738 14.2282C16.6502 13.7693 17.4389 13.5033 18.2552 13.4588C19.0714 13.4144 19.8844 13.5931 20.6067 13.9758C21.329 14.3585 21.9335 14.9307 22.3551 15.631C22.7768 16.3313 22.9997 17.1332 23 17.9507ZM12.5 10.9507C12.5 11.2474 12.412 11.5374 12.2472 11.784C12.0824 12.0307 11.8481 12.223 11.574 12.3365C11.2999 12.45 10.9983 12.4797 10.7074 12.4219C10.4164 12.364 10.1491 12.2211 9.93934 12.0113C9.72956 11.8016 9.5867 11.5343 9.52882 11.2433C9.47094 10.9523 9.50065 10.6507 9.61418 10.3767C9.72771 10.1026 9.91997 9.8683 10.1666 9.70348C10.4133 9.53866 10.7033 9.45068 11 9.45068C11.3978 9.45068 11.7794 9.60872 12.0607 9.89002C12.342 10.1713 12.5 10.5529 12.5 10.9507Z" fill="black"/>
</g>
</svg>
