<svg width="48" height="49" viewBox="0 0 48 49" fill="none" xmlns="http://www.w3.org/2000/svg">
<path id="Vector" d="M47.625 24.5C47.625 25.0221 47.4176 25.5229 47.0484 25.8921C46.6792 26.2613 46.1784 26.4688 45.6562 26.4688H25.9688V46.1562C25.9688 46.6784 25.7613 47.1792 25.3921 47.5484C25.0229 47.9176 24.5221 48.125 24 48.125C23.4779 48.125 22.9771 47.9176 22.6079 47.5484C22.2387 47.1792 22.0312 46.6784 22.0312 46.1562V26.4688H2.34375C1.82161 26.4688 1.32085 26.2613 0.951634 25.8921C0.582422 25.5229 0.375 25.0221 0.375 24.5C0.375 23.9779 0.582422 23.4771 0.951634 23.1079C1.32085 22.7387 1.82161 22.5312 2.34375 22.5312H22.0312V2.84375C22.0312 2.32161 22.2387 1.82085 22.6079 1.45163C22.9771 1.08242 23.4779 0.875 24 0.875C24.5221 0.875 25.0229 1.08242 25.3921 1.45163C25.7613 1.82085 25.9688 2.32161 25.9688 2.84375V22.5312H45.6562C46.1784 22.5312 46.6792 22.7387 47.0484 23.1079C47.4176 23.4771 47.625 23.9779 47.625 24.5Z" fill="black"/>
</svg>
