<svg width="32" height="33" viewBox="0 0 32 33" fill="none" xmlns="http://www.w3.org/2000/svg">
<g id="System and devices">
<path id="Vector" d="M17.1925 23.7456C17.3799 23.9331 17.4852 24.1874 17.4852 24.4525C17.4852 24.7176 17.3799 24.9718 17.1925 25.1594L15.95 26.4094C14.636 27.7225 12.8542 28.4599 10.9965 28.4593C9.13888 28.4587 7.35753 27.7202 6.04438 26.4062C4.73122 25.0923 3.99383 23.3104 3.99442 21.4528C3.995 19.5951 4.73352 17.8138 6.0475 16.5006L9.0625 13.4856C10.3246 12.2225 12.0217 11.4895 13.8065 11.4365C15.5913 11.3835 17.3289 12.0146 18.6637 13.2006C18.7622 13.2879 18.8426 13.3938 18.9001 13.5122C18.9577 13.6306 18.9914 13.7591 18.9993 13.8905C19.0072 14.0219 18.9891 14.1536 18.9461 14.278C18.9032 14.4024 18.8361 14.5171 18.7488 14.6156C18.6614 14.7141 18.5555 14.7944 18.4372 14.852C18.3188 14.9096 18.1902 14.9433 18.0589 14.9512C17.9275 14.9591 17.7958 14.941 17.6714 14.898C17.547 14.855 17.4322 14.7879 17.3337 14.7006C16.3804 13.854 15.1396 13.4036 13.8652 13.4414C12.5907 13.4793 11.3789 14.0026 10.4775 14.9044L7.4625 17.9156C6.52463 18.8535 5.99774 20.1255 5.99774 21.4519C5.99774 22.7782 6.52463 24.0502 7.4625 24.9881C8.40037 25.926 9.6724 26.4529 10.9988 26.4529C12.3251 26.4529 13.5971 25.926 14.535 24.9881L15.7775 23.7456C15.8704 23.6526 15.9807 23.5789 16.1021 23.5286C16.2235 23.4782 16.3536 23.4523 16.485 23.4523C16.6164 23.4523 16.7465 23.4782 16.8679 23.5286C16.9893 23.5789 17.0996 23.6526 17.1925 23.7456ZM25.9525 6.49562C24.6383 5.18439 22.8577 4.448 21.0012 4.448C19.1448 4.448 17.3642 5.18439 16.05 6.49562L14.8075 7.73937C14.62 7.92701 14.5148 8.18144 14.5149 8.44668C14.515 8.71193 14.6205 8.96627 14.8081 9.15374C14.9958 9.34122 15.2502 9.44647 15.5154 9.44636C15.7807 9.44624 16.035 9.34076 16.2225 9.15312L17.465 7.91062C18.4029 6.97275 19.6749 6.44585 21.0012 6.44585C22.3276 6.44585 23.5996 6.97275 24.5375 7.91062C25.4754 8.84849 26.0023 10.1205 26.0023 11.4469C26.0023 12.7732 25.4754 14.0452 24.5375 14.9831L21.5225 18.0006C20.6206 18.9018 19.4085 19.4245 18.1341 19.4616C16.8596 19.4988 15.6191 19.0477 14.6663 18.2006C14.5678 18.1133 14.453 18.0462 14.3286 18.0032C14.2042 17.9602 14.0725 17.9422 13.9411 17.9501C13.6758 17.966 13.4276 18.0867 13.2513 18.2856C13.1639 18.3841 13.0968 18.4988 13.0539 18.6232C13.0109 18.7477 12.9928 18.8793 13.0007 19.0107C13.0166 19.2761 13.1373 19.5242 13.3363 19.7006C14.6707 20.887 16.4082 21.5185 18.193 21.466C19.9778 21.4135 21.6751 20.6809 22.9375 19.4181L25.9525 16.4031C27.2645 15.0888 28.0014 13.3077 28.0014 11.4506C28.0014 9.59356 27.2645 7.81239 25.9525 6.49812V6.49562Z" fill="black"/>
</g>
</svg>
