<svg width="283" height="68" viewBox="0 0 283 68" fill="none" xmlns="http://www.w3.org/2000/svg">
<path fill-rule="evenodd" clip-rule="evenodd" d="M214.43 33.7779C214.43 52.1986 229.698 67.1818 248.461 67.1818C267.231 67.1818 282.5 52.2045 282.5 33.7779C282.5 15.3513 267.231 0.364502 248.457 0.364502C243.04 0.368051 237.644 1.65122 232.864 4.07245C230.862 5.09024 230.085 7.49057 231.134 9.43465C232.177 11.3779 234.647 12.1398 236.654 11.1193C240.324 9.25681 244.296 8.31355 248.461 8.31C262.714 8.31 274.315 19.7422 274.315 33.7779C274.315 47.8135 262.714 59.2363 248.461 59.2363C234.207 59.2363 222.617 47.8135 222.617 33.7779C222.617 29.0391 223.942 24.423 226.454 20.4185C227.629 18.545 227.013 16.1005 225.086 14.9585C223.148 13.8193 220.633 14.4128 219.459 16.2898C216.168 21.5369 214.43 27.584 214.43 33.7779ZM125.359 64.1979C126.157 64.9743 127.205 65.3616 128.253 65.3616C129.3 65.3616 130.346 64.9743 131.146 64.1979C132.745 62.6513 132.745 60.1323 131.151 58.5798L118.819 46.6037C117.221 45.0508 114.631 45.0508 113.033 46.6037C111.433 48.1499 111.433 50.669 113.027 52.2199L125.359 64.1979ZM111.658 2.28778H82.4957C80.7955 2.28778 79.3404 3.29018 78.7212 4.71965C78.499 5.211 78.371 5.75045 78.371 6.31948V61.2759C78.371 63.472 80.2012 65.2496 82.464 65.2496C84.7268 65.2496 86.5566 63.472 86.5566 61.2759V10.2352H111.658C118.52 10.2352 124.105 15.6534 124.105 22.3193C124.105 28.9852 118.52 34.405 111.658 34.405H97.3247C95.0619 34.405 93.2313 36.1822 93.2313 38.3783C93.2313 40.5744 95.0619 42.3516 97.3247 42.3516H111.658C123.032 42.3516 132.291 33.3643 132.291 22.3193C132.291 11.2743 123.032 2.28778 111.658 2.28778ZM181.158 33.4238H197.738C199.996 33.4238 201.831 35.2007 201.831 37.3976V61.4443C201.831 63.6391 200.001 65.4184 197.737 65.4184C195.474 65.4184 193.643 63.6391 193.643 61.4443V41.3697H181.158C178.899 41.3697 177.065 39.5944 177.065 37.3976C177.065 35.2007 178.899 33.4238 181.158 33.4238ZM177.49 67.3645C158.719 67.3645 143.452 52.3773 143.452 33.9503C143.452 15.5234 158.719 0.545639 177.49 0.545639C184.88 0.545639 191.912 2.83437 197.827 7.16814C199.629 8.48877 199.984 10.983 198.628 12.7322C197.267 14.4827 194.701 14.8344 192.894 13.5095C188.41 10.2274 183.085 8.49154 177.49 8.49154C163.237 8.49154 151.636 19.9135 151.636 33.9503C151.636 47.9872 163.237 59.4194 177.49 59.4194C179.293 59.4194 181.112 59.2325 182.886 58.8638C185.109 58.3858 187.274 59.7704 187.747 61.9175C188.219 64.0635 186.812 66.1728 184.596 66.6326C182.263 67.1192 179.868 67.3645 177.49 67.3645H177.49ZM29.6193 61.2724C29.6193 63.4681 31.4515 65.2458 33.7119 65.2458C35.9726 65.2458 37.8061 63.4681 37.8061 61.2724V37.5428C37.8061 35.3491 35.9722 33.5714 33.7119 33.5714C31.4515 33.5714 29.6193 35.3491 29.6193 37.5428V61.2724ZM42.2627 27.2394C41.0898 27.2394 39.9251 26.7508 39.1166 25.8095C37.6684 24.1198 37.9072 21.6181 39.6436 20.2131L60.6236 3.26725C62.3595 1.86262 64.9388 2.08976 66.3851 3.78028C67.8329 5.46647 67.5957 7.96893 65.8582 9.37159L44.8797 26.3214C44.1144 26.9373 43.1869 27.2394 42.2627 27.2394ZM22.9686 26.3207C23.7335 26.9366 24.6602 27.2387 25.584 27.2387C26.7573 27.2387 27.9236 26.7501 28.7337 25.8088C30.1787 24.1191 29.9398 21.6135 28.2039 20.2124L7.21086 3.26654C5.47333 1.86191 2.89038 2.09338 1.44575 3.77957C0.000710478 5.46536 0.238368 7.97216 1.9755 9.37087L22.9686 26.3207Z" fill="#F52A3B"/>
</svg>
