<svg width="80" height="22" viewBox="0 0 80 22" fill="none" xmlns="http://www.w3.org/2000/svg">
<path fill-rule="evenodd" clip-rule="evenodd" d="M60.6895 10.9347C60.6895 16.5139 65.0208 21.0521 70.3434 21.0521C75.6683 21.0521 80 16.5157 80 10.9347C80 5.35365 75.6683 0.814453 70.3425 0.814453C68.8055 0.815528 67.2749 1.20418 65.9189 1.93752C65.351 2.24578 65.1306 2.9728 65.4279 3.56162C65.724 4.1502 66.4247 4.38095 66.9942 4.07185C68.0351 3.50775 69.1619 3.22206 70.3434 3.22098C74.3868 3.22098 77.678 6.68358 77.678 10.9347C77.678 15.1858 74.387 18.6455 70.3434 18.6455C66.2998 18.6455 63.0119 15.1858 63.0119 10.9347C63.0119 9.49942 63.3879 8.10129 64.1004 6.88841C64.4338 6.32097 64.2589 5.58058 63.7123 5.23469C63.1626 4.88964 62.4491 5.06939 62.1159 5.63791C61.1824 7.22713 60.6895 9.0587 60.6895 10.9347ZM35.4211 20.1483C35.6475 20.3835 35.9449 20.5007 36.242 20.5007C36.5391 20.5007 36.8357 20.3835 37.0627 20.1483C37.5163 19.6798 37.5163 18.9169 37.064 18.4467L33.5658 14.8194C33.1124 14.349 32.3777 14.349 31.9243 14.8194C31.4704 15.2877 31.4704 16.0506 31.9227 16.5204L35.4211 20.1483ZM31.534 1.39697H23.2612C22.7788 1.39697 22.366 1.70058 22.1904 2.13354C22.1273 2.28236 22.091 2.44575 22.091 2.61809V19.2633C22.091 19.9284 22.6102 20.4668 23.2522 20.4668C23.8941 20.4668 24.4132 19.9284 24.4132 19.2633V3.8041H31.534C33.4807 3.8041 35.0652 5.44516 35.0652 7.46412C35.0652 9.48308 33.4807 11.1246 31.534 11.1246H27.468C26.826 11.1246 26.3067 11.6629 26.3067 12.3281C26.3067 12.9932 26.826 13.5315 27.468 13.5315H31.534C34.7609 13.5315 37.3874 10.8094 37.3874 7.46412C37.3874 4.11882 34.7609 1.39697 31.534 1.39697ZM51.2506 10.8275H55.954C56.5945 10.8275 57.1151 11.3657 57.1151 12.0311V19.3144C57.1151 19.9792 56.596 20.518 55.9539 20.518C55.3117 20.518 54.7924 19.9792 54.7924 19.3144V13.2342H51.2506C50.6098 13.2342 50.0893 12.6965 50.0893 12.0311C50.0893 11.3657 50.6098 10.8275 51.2506 10.8275ZM50.2099 21.1073C44.8849 21.1073 40.5537 16.568 40.5537 10.9868C40.5537 5.40565 44.8847 0.869202 50.2099 0.869202C52.3064 0.869202 54.3012 1.56241 55.9794 2.87502C56.4905 3.27502 56.5914 4.03045 56.2065 4.56028C55.8205 5.09046 55.0925 5.19699 54.5798 4.79569C53.3078 3.80161 51.7972 3.27585 50.21 3.27585C46.1664 3.27585 42.8755 6.73534 42.8755 10.9868C42.8755 15.2383 46.1664 18.7009 50.21 18.7009C50.7214 18.7009 51.2374 18.6443 51.7407 18.5326C52.3714 18.3878 52.9857 18.8072 53.1196 19.4575C53.2535 20.1075 52.8544 20.7463 52.226 20.8856C51.564 21.033 50.8846 21.1073 50.21 21.1073H50.2099ZM8.26075 19.2622C8.26075 19.9272 8.78053 20.4656 9.42177 20.4656C10.0631 20.4656 10.5832 19.9272 10.5832 19.2622V12.0749C10.5832 11.4105 10.063 10.8721 9.42177 10.8721C8.78053 10.8721 8.26075 11.4105 8.26075 12.0749V19.2622ZM11.8475 8.95422C11.5148 8.95422 11.1844 8.80624 10.9551 8.52115C10.5442 8.00936 10.612 7.25165 11.1045 6.8261L17.0563 1.69354C17.5488 1.26811 18.2805 1.3369 18.6908 1.84893C19.1015 2.35964 19.0342 3.11759 18.5413 3.54242L12.59 8.67617C12.3728 8.86273 12.1097 8.95422 11.8475 8.95422ZM6.37406 8.67599C6.59107 8.86255 6.85395 8.95404 7.11603 8.95404C7.44887 8.95404 7.77975 8.80606 8.00955 8.52096C8.41949 8.00917 8.35172 7.25027 7.85927 6.82591L1.90379 1.69336C1.41087 1.26792 0.678122 1.33803 0.268297 1.84875C-0.141642 2.35934 -0.074222 3.1186 0.418581 3.54224L6.37406 8.67599Z" fill="#F52A3B"/>
</svg>
