<svg width="42" height="39" viewBox="0 0 42 39" fill="none" xmlns="http://www.w3.org/2000/svg">
<g clip-path="url(#clip0_2295_641)">
<path fill-rule="evenodd" clip-rule="evenodd" d="M20.8313 38.1953C19.4084 38.1953 18.2546 37.1384 18.2546 35.8332V21.726C18.2546 20.4216 19.4084 19.3647 20.8313 19.3647C22.2551 19.3647 23.4089 20.4216 23.4089 21.726V35.8332C23.4089 37.1384 22.2551 38.1953 20.8313 38.1953Z" fill="#F52A3B"/>
<path fill-rule="evenodd" clip-rule="evenodd" d="M26.1861 15.3582C25.4517 15.3582 24.7235 15.0709 24.2169 14.5177C23.3108 13.5253 23.4602 12.0556 24.5465 11.23L37.6784 1.27507C38.7647 0.450359 40.3798 0.583795 41.2851 1.57623C42.1913 2.56681 42.0428 4.0374 40.9555 4.86119L27.8246 14.8189C27.3456 15.1812 26.7648 15.3582 26.1861 15.3582Z" fill="#F52A3B"/>
<mask id="mask0_2295_641" style="mask-type:alpha" maskUnits="userSpaceOnUse" x="0" y="0" width="19" height="16">
<path fill-rule="evenodd" clip-rule="evenodd" d="M0 15.6213V0.718018H18.2107V15.6213H0Z" fill="white"/>
</mask>
<g mask="url(#mask0_2295_641)">
<path fill-rule="evenodd" clip-rule="evenodd" d="M15.6545 15.6213C15.0785 15.6213 14.4995 15.441 14.0228 15.0717L0.920921 4.92294C-0.163212 4.08619 -0.312293 2.58456 0.590305 1.57498C1.49189 0.566336 3.1044 0.427506 4.18751 1.26804L17.2894 11.4139C18.3735 12.2535 18.5226 13.7533 17.62 14.7647C17.1149 15.3286 16.3868 15.6213 15.6545 15.6213Z" fill="#F52A3B"/>
</g>
</g>
<defs>
<clipPath id="clip0_2295_641">
<rect width="41.8786" height="37.6611" fill="white" transform="translate(0 0.53418)"/>
</clipPath>
</defs>
</svg>
