<svg width="139" height="34" viewBox="0 0 139 34" fill="none" xmlns="http://www.w3.org/2000/svg">
<g id="logo">
<path id="logo_2" fill-rule="evenodd" clip-rule="evenodd" d="M105.448 16.637C105.448 25.7099 112.974 33.0897 122.222 33.0897C131.474 33.0897 139 25.7128 139 16.637C139 7.56124 131.474 0.179688 122.22 0.179688C119.55 0.181436 116.89 0.813446 114.534 2.00599C113.547 2.50729 113.164 3.68954 113.681 4.64707C114.196 5.60422 115.413 5.97946 116.402 5.47681C118.211 4.55948 120.169 4.09489 122.222 4.09314C129.247 4.09314 134.965 9.72394 134.965 16.637C134.965 23.5501 129.247 29.1762 122.222 29.1762C115.196 29.1762 109.483 23.5501 109.483 16.637C109.483 14.303 110.137 12.0294 111.374 10.057C111.954 9.13427 111.65 7.93027 110.7 7.36779C109.745 6.80667 108.505 7.09898 107.926 8.0235C106.304 10.6079 105.448 13.5863 105.448 16.637ZM61.544 31.62C61.9375 32.0024 62.4541 32.1932 62.9703 32.1932C63.4866 32.1932 64.002 32.0024 64.3963 31.62C65.1844 30.8583 65.1844 29.6175 64.3987 28.8529L58.3205 22.9542C57.5327 22.1894 56.2561 22.1894 55.4684 22.9542C54.6798 23.7158 54.6798 24.9565 55.4656 25.7204L61.544 31.62ZM54.7905 1.12697H40.4163C39.5783 1.12697 38.861 1.62069 38.5559 2.32476C38.4463 2.56677 38.3832 2.83247 38.3832 3.11274V30.1808C38.3832 31.2625 39.2853 32.138 40.4007 32.138C41.5161 32.138 42.418 31.2625 42.418 30.1808V5.0414H54.7905C58.1728 5.0414 60.9258 7.71006 60.9258 10.9933C60.9258 14.2764 58.1728 16.9459 54.7905 16.9459H47.7256C46.6103 16.9459 45.708 17.8213 45.708 18.9029C45.708 19.9845 46.6103 20.8599 47.7256 20.8599H54.7905C60.3971 20.8599 64.9607 16.4333 64.9607 10.9933C64.9607 5.55318 60.3971 1.12697 54.7905 1.12697ZM89.0478 16.4626H97.22C98.333 16.4626 99.2375 17.3378 99.2375 18.4199V30.2638C99.2375 31.3448 98.3356 32.2212 97.2198 32.2212C96.104 32.2212 95.2017 31.3448 95.2017 30.2638V20.3763H89.0478C87.9345 20.3763 87.0302 19.5019 87.0302 18.4199C87.0302 17.3378 87.9345 16.4626 89.0478 16.4626ZM87.2397 33.1797C77.9874 33.1797 70.462 25.7979 70.462 16.722C70.462 7.64599 77.9872 0.268904 87.2397 0.268904C90.8823 0.268904 94.3484 1.39619 97.2641 3.53073C98.1522 4.18119 98.3274 5.40967 97.6588 6.27126C96.988 7.13343 95.7232 7.30668 94.8324 6.65408C92.6223 5.03754 89.9977 4.18255 87.2399 4.18255C80.2141 4.18255 74.4961 9.8083 74.4961 16.722C74.4961 23.6356 80.2141 29.2664 87.2399 29.2664C88.1284 29.2664 89.0249 29.1744 89.8993 28.9928C90.9953 28.7574 92.0626 29.4393 92.2953 30.4968C92.5279 31.5538 91.8345 32.5927 90.7426 32.8192C89.5924 33.0589 88.4119 33.1797 87.2399 33.1797H87.2397ZM14.3531 30.1791C14.3531 31.2606 15.2562 32.1361 16.3704 32.1361C17.4847 32.1361 18.3884 31.2606 18.3884 30.1791V18.4914C18.3884 17.4109 17.4845 16.5353 16.3704 16.5353C15.2562 16.5353 14.3531 17.4109 14.3531 18.4914V30.1791ZM20.5851 13.4166C20.007 13.4166 19.4329 13.1759 19.0344 12.7123C18.3206 11.8801 18.4383 10.6479 19.2942 9.95586L29.6354 1.6094C30.491 0.917566 31.7624 1.02944 32.4753 1.86209C33.1889 2.6926 33.072 3.92515 32.2155 4.61601L21.8751 12.9644C21.4979 13.2678 21.0407 13.4166 20.5851 13.4166ZM11.0749 12.9641C11.452 13.2674 11.9087 13.4162 12.3641 13.4162C12.9424 13.4162 13.5173 13.1756 13.9166 12.712C14.6289 11.8797 14.5111 10.6456 13.6555 9.95551L3.30784 1.60905C2.45139 0.917215 1.17824 1.03123 0.466166 1.86174C-0.246104 2.69205 -0.128961 3.92674 0.727285 4.61566L11.0749 12.9641Z" fill="#F52A3B"/>
</g>
</svg>
