<svg width="36" height="24" viewBox="0 0 36 24" fill="none" xmlns="http://www.w3.org/2000/svg">
<path id="Vector" d="M35.9375 1.96875V12.2188C35.9375 12.5586 35.8025 12.8844 35.5622 13.1247C35.3219 13.365 34.996 13.5 34.6562 13.5C34.3164 13.5 33.9905 13.365 33.7502 13.1247C33.51 12.8844 33.375 12.5586 33.375 12.2188V5.06137L20.1877 18.2502C20.0687 18.3694 19.9274 18.4639 19.7719 18.5283C19.6163 18.5928 19.4496 18.626 19.2812 18.626C19.1129 18.626 18.9461 18.5928 18.7906 18.5283C18.635 18.4639 18.4937 18.3694 18.3747 18.2502L12.875 12.7489L2.25021 23.3752C2.0098 23.6157 1.68373 23.7507 1.34373 23.7507C1.00373 23.7507 0.67766 23.6157 0.437246 23.3752C0.196831 23.1348 0.0617676 22.8087 0.0617676 22.4688C0.0617676 22.1288 0.196831 21.8027 0.437246 21.5623L11.9685 10.031C12.0875 9.91189 12.2288 9.81739 12.3843 9.75291C12.5399 9.68843 12.7066 9.65524 12.875 9.65524C13.0434 9.65524 13.2101 9.68843 13.3656 9.75291C13.5212 9.81739 13.6625 9.91189 13.7815 10.031L19.2812 15.5324L31.5636 3.25H24.4062C24.0664 3.25 23.7405 3.11501 23.5002 2.87473C23.26 2.63445 23.125 2.30856 23.125 1.96875C23.125 1.62894 23.26 1.30305 23.5002 1.06277C23.7405 0.822489 24.0664 0.6875 24.4062 0.6875H34.6562C34.996 0.6875 35.3219 0.822489 35.5622 1.06277C35.8025 1.30305 35.9375 1.62894 35.9375 1.96875Z" fill="black"/>
</svg>
