<svg width="38" height="38" viewBox="0 0 38 38" fill="none" xmlns="http://www.w3.org/2000/svg">
<path id="Vector" d="M36.844 5.78124L31.719 0.65624C31.4786 0.415825 31.1525 0.280762 30.8125 0.280762C30.4725 0.280762 30.1464 0.415825 29.906 0.65624C29.6656 0.896654 29.5305 1.22273 29.5305 1.56272C29.5305 1.90272 29.6656 2.22879 29.906 2.46921L30.143 2.70464L21.3072 9.3319L15.186 10.5571C14.9382 10.6067 14.7104 10.7282 14.531 10.9062L1.18358 24.2505C0.462792 24.9713 0.0578613 25.9489 0.0578613 26.9683C0.0578613 27.9877 0.462792 28.9653 1.18358 29.6862L7.81405 36.3166C8.53488 37.0374 9.51252 37.4423 10.5319 37.4423C11.5513 37.4423 12.5289 37.0374 13.2498 36.3166L26.594 22.974C26.7724 22.7949 26.8939 22.567 26.9431 22.319L28.1683 16.1978L34.7956 7.36198L35.031 7.59901C35.15 7.71805 35.2914 7.81248 35.4469 7.87691C35.6024 7.94133 35.7691 7.97449 35.9375 7.97449C36.1058 7.97449 36.2725 7.94133 36.4281 7.87691C36.5836 7.81248 36.7249 7.71805 36.844 7.59901C36.963 7.47997 37.0574 7.33865 37.1219 7.18311C37.1863 7.02758 37.2194 6.86088 37.2194 6.69253C37.2194 6.52418 37.1863 6.35748 37.1219 6.20194C37.0574 6.04641 36.963 5.90509 36.844 5.78604V5.78124ZM12.875 16.1866L21.3136 24.6252L14.1562 31.7826L5.7176 23.344L12.875 16.1866ZM10.5319 34.8752C10.3638 34.8757 10.1973 34.8428 10.0419 34.7785C9.88661 34.7141 9.74559 34.6196 9.62702 34.5005L2.99975 27.8732C2.75965 27.6329 2.62478 27.3072 2.62478 26.9675C2.62478 26.6278 2.75965 26.3021 2.99975 26.0618L3.90624 25.1553L12.3449 33.594L11.4336 34.5005C11.1943 34.7395 10.8701 34.8742 10.5319 34.8752ZM25.9437 14.8877C25.8289 15.0406 25.75 15.2174 25.7131 15.405L24.5071 21.4317L23.125 22.8139L14.6864 14.3752L16.0685 12.9931L22.0952 11.7871C22.2828 11.7502 22.4596 11.6714 22.6125 11.5565L31.9736 4.53522L32.965 5.52659L25.9437 14.8877Z" fill="black"/>
</svg>
