<svg width="37" height="33" viewBox="0 0 37 33" fill="none" xmlns="http://www.w3.org/2000/svg">
<path id="Vector" d="M5.19871 13.6562H30.8013C31.1849 13.6582 31.564 13.574 31.9106 13.4099C32.2573 13.2458 32.5628 13.0059 32.8044 12.7081C33.046 12.4102 33.2177 12.0618 33.3068 11.6887C33.3958 11.3157 33.4 10.9273 33.3189 10.5524C32.129 4.92773 25.6875 0.84375 18 0.84375C10.3125 0.84375 3.87102 4.92773 2.68105 10.5524C2.60002 10.9273 2.60419 11.3157 2.69324 11.6887C2.7823 12.0618 2.95397 12.4102 3.19561 12.7081C3.43724 13.0059 3.74266 13.2458 4.08935 13.4099C4.43604 13.574 4.81515 13.6582 5.19871 13.6562ZM18 3.40625C24.3774 3.40625 29.8852 6.70707 30.8013 11.0938H5.19871L5.1875 11.0825C6.1148 6.70707 11.6226 3.40625 18 3.40625ZM34.2174 21.4206L27.6302 23.823L21.6836 21.435C21.3782 21.313 21.0376 21.313 20.7323 21.435L14.8065 23.807L8.87109 21.435C8.57889 21.3183 8.25395 21.3132 7.9582 21.4206L0.911328 23.9831C0.613495 24.1142 0.376704 24.3537 0.249016 24.653C0.121327 24.9524 0.11231 25.289 0.223795 25.5948C0.335279 25.9005 0.558911 26.1523 0.8493 26.2992C1.13969 26.446 1.47507 26.4769 1.78738 26.3855L3.90625 25.6183V26.4688C3.90625 28.1678 4.58119 29.7972 5.7826 30.9987C6.984 32.2001 8.61346 32.875 10.3125 32.875H25.6875C27.3865 32.875 29.016 32.2001 30.2174 30.9987C31.4188 29.7972 32.0938 28.1678 32.0938 26.4688V24.92L35.0935 23.8294C35.2617 23.7801 35.418 23.6969 35.5528 23.5849C35.6875 23.4728 35.7979 23.3343 35.877 23.1779C35.9561 23.0215 36.0022 22.8505 36.0126 22.6756C36.023 22.5006 35.9974 22.3254 35.9373 22.1608C35.8773 21.9961 35.7841 21.8455 35.6635 21.7183C35.5429 21.5911 35.3976 21.49 35.2364 21.4212C35.0751 21.3524 34.9015 21.3175 34.7263 21.3185C34.551 21.3195 34.3778 21.3564 34.2174 21.427V21.4206ZM29.5312 26.4688C29.5312 27.4882 29.1263 28.4658 28.4054 29.1867C27.6846 29.9075 26.7069 30.3125 25.6875 30.3125H10.3125C9.29307 30.3125 8.3154 29.9075 7.59456 29.1867C6.87372 28.4658 6.46875 27.4882 6.46875 26.4688V24.6878L8.36981 23.9959L14.3164 26.3775C14.6218 26.4995 14.9624 26.4995 15.2677 26.3775L21.1935 24.0055L27.1193 26.3775C27.4115 26.4942 27.7364 26.4993 28.0322 26.3919L29.5168 25.8521L29.5312 26.4688ZM0.0625 17.5C0.0625 17.1602 0.197488 16.8343 0.437769 16.594C0.67805 16.3537 1.00394 16.2188 1.34375 16.2188H34.6562C34.9961 16.2188 35.322 16.3537 35.5622 16.594C35.8025 16.8343 35.9375 17.1602 35.9375 17.5C35.9375 17.8398 35.8025 18.1657 35.5622 18.406C35.322 18.6463 34.9961 18.7812 34.6562 18.7812H1.34375C1.00394 18.7812 0.67805 18.6463 0.437769 18.406C0.197488 18.1657 0.0625 17.8398 0.0625 17.5Z" fill="black"/>
</svg>
