<svg width="35" height="36" viewBox="0 0 35 36" fill="none" xmlns="http://www.w3.org/2000/svg">
<path id="Vector" d="M33.6563 8.25H29.0614L33.2815 4.03148C33.4006 3.91244 33.495 3.77112 33.5594 3.61559C33.6238 3.46005 33.657 3.29335 33.657 3.125C33.657 2.95665 33.6238 2.78995 33.5594 2.63441C33.495 2.47888 33.4006 2.33756 33.2815 2.21852C33.1625 2.09947 33.0212 2.00505 32.8656 1.94062C32.7101 1.8762 32.5434 1.84304 32.375 1.84304C32.2067 1.84304 32.04 1.8762 31.8844 1.94062C31.7289 2.00505 31.5876 2.09947 31.4685 2.21852L27.25 6.43863V1.84375C27.25 1.50394 27.115 1.17805 26.8748 0.937769C26.6345 0.697488 26.3086 0.5625 25.9688 0.5625C25.629 0.5625 25.3031 0.697488 25.0628 0.937769C24.8225 1.17805 24.6875 1.50394 24.6875 1.84375V7.06004C22.7352 5.93299 20.4658 5.48098 18.2307 5.77398C15.9955 6.06698 13.9193 7.08865 12.3235 8.68082C5.9012 14.9894 1.07249 29.9944 0.601633 31.4951C0.379629 31.9716 0.309568 32.5049 0.400952 33.0226C0.492335 33.5403 0.740742 34.0174 1.11248 34.3892C1.48422 34.7609 1.96129 35.0093 2.47901 35.1007C2.99672 35.1921 3.53001 35.122 4.00655 34.9C5.50722 34.4291 20.5315 29.594 26.824 23.175C28.415 21.5787 29.4356 19.5025 29.7277 17.2677C30.0198 15.0329 29.5672 12.7641 28.44 10.8125H33.6563C33.9961 10.8125 34.322 10.6775 34.5623 10.4372C34.8025 10.1969 34.9375 9.87106 34.9375 9.53125C34.9375 9.19144 34.8025 8.86555 34.5623 8.62527C34.322 8.38499 33.9961 8.25 33.6563 8.25ZM24.9886 21.3828C23.5568 22.8434 21.5853 24.2336 19.4072 25.5036L15.3424 21.4373C15.2234 21.3182 15.0821 21.2238 14.9265 21.1594C14.771 21.0949 14.6043 21.0618 14.4359 21.0618C14.2676 21.0618 14.1009 21.0949 13.9453 21.1594C13.7898 21.2238 13.6485 21.3182 13.5294 21.4373C13.4104 21.5563 13.316 21.6976 13.2516 21.8532C13.1871 22.0087 13.154 22.1754 13.154 22.3438C13.154 22.5121 13.1871 22.6788 13.2516 22.8343C13.316 22.9899 13.4104 23.1312 13.5294 23.2502L17.0673 26.7881C10.5217 30.1818 3.24261 32.4608 3.1337 32.4945C3.05484 32.5201 2.97867 32.5533 2.90628 32.5938C2.94498 32.5217 2.97662 32.4461 3.00077 32.3679C3.04722 32.219 7.48515 18.0211 13.2508 11.4403L18.6593 16.8488C18.8997 17.0892 19.2257 17.2243 19.5657 17.2243C19.9057 17.2243 20.2318 17.0892 20.4722 16.8488C20.7126 16.6084 20.8477 16.2823 20.8477 15.9423C20.8477 15.6023 20.7126 15.2762 20.4722 15.0358L15.107 9.67219C16.6789 8.55377 18.6139 8.06726 20.5278 8.30922C22.4418 8.55118 24.1948 9.50392 25.439 10.9783C26.6831 12.4528 27.3274 14.3411 27.244 16.2684C27.1606 18.1958 26.3555 20.0214 24.9886 21.3828Z" fill="black"/>
</svg>
