<svg width="34" height="33" viewBox="0 0 34 33" fill="none" xmlns="http://www.w3.org/2000/svg">
<path id="Vector" d="M11.875 17.4217C11.875 17.8018 11.7623 18.1734 11.5511 18.4894C11.3399 18.8055 11.0398 19.0518 10.6886 19.1972C10.3374 19.3427 9.95099 19.3808 9.57819 19.3066C9.20538 19.2325 8.86293 19.0494 8.59415 18.7806C8.32538 18.5119 8.14233 18.1694 8.06818 17.7966C7.99402 17.4238 8.03208 17.0374 8.17754 16.6862C8.32301 16.335 8.56934 16.0349 8.88539 15.8237C9.20144 15.6125 9.57301 15.4998 9.95312 15.4998C10.4628 15.4998 10.9517 15.7023 11.3121 16.0627C11.6725 16.4231 11.875 16.912 11.875 17.4217ZM24.0469 15.4998C23.6668 15.4998 23.2952 15.6125 22.9791 15.8237C22.6631 16.0349 22.4168 16.335 22.2713 16.6862C22.1258 17.0374 22.0878 17.4238 22.1619 17.7966C22.2361 18.1694 22.4191 18.5119 22.6879 18.7806C22.9567 19.0494 23.2991 19.2325 23.6719 19.3066C24.0447 19.3808 24.4312 19.3427 24.7823 19.1972C25.1335 19.0518 25.4337 18.8055 25.6449 18.4894C25.856 18.1734 25.9688 17.8018 25.9688 17.4217C25.9688 16.912 25.7663 16.4231 25.4058 16.0627C25.0454 15.7023 24.5566 15.4998 24.0469 15.4998ZM33.6562 2.68729V16.781C33.6562 25.2581 26.185 32.156 17 32.156C7.81504 32.156 0.34375 25.2581 0.34375 16.781V2.68729C0.343985 2.18065 0.4944 1.68545 0.775987 1.26426C1.05757 0.84308 1.45769 0.514821 1.92578 0.32097C2.39387 0.127118 2.90892 0.0763742 3.40584 0.175151C3.90276 0.273927 4.35925 0.51779 4.71762 0.875923C4.74004 0.898345 4.75926 0.919165 4.77848 0.941587L7.55078 4.1287C10.3855 2.3527 13.6629 1.41078 17.008 1.41078C20.3531 1.41078 23.6306 2.3527 26.4652 4.1287L29.2215 0.941587C29.2407 0.919165 29.26 0.898345 29.2824 0.875923C29.6408 0.51779 30.0972 0.273927 30.5942 0.175151C31.0911 0.0763742 31.6061 0.127118 32.0742 0.32097C32.5423 0.514821 32.9424 0.84308 33.224 1.26426C33.5056 1.68545 33.656 2.18065 33.6562 2.68729ZM31.0938 2.68729L27.6408 6.65917C27.4296 6.90352 27.1338 7.05909 26.8128 7.09473C26.4918 7.13036 26.1692 7.04344 25.9095 6.85135C25.1279 6.27334 24.2891 5.77693 23.4062 5.36991V9.09354C23.4062 9.43335 23.2713 9.75924 23.031 9.99952C22.7907 10.2398 22.4648 10.3748 22.125 10.3748C21.7852 10.3748 21.4593 10.2398 21.219 9.99952C20.9787 9.75924 20.8438 9.43335 20.8438 9.09354V4.45702C20.0032 4.2408 19.146 4.09508 18.2812 4.02139V9.09354C18.2812 9.43335 18.1463 9.75924 17.906 9.99952C17.6657 10.2398 17.3398 10.3748 17 10.3748C16.6602 10.3748 16.3343 10.2398 16.094 9.99952C15.8537 9.75924 15.7188 9.43335 15.7188 9.09354V4.02139C14.854 4.09508 13.9968 4.2408 13.1562 4.45702V9.09354C13.1562 9.43335 13.0213 9.75924 12.781 9.99952C12.5407 10.2398 12.2148 10.3748 11.875 10.3748C11.5352 10.3748 11.2093 10.2398 10.969 9.99952C10.7287 9.75924 10.5938 9.43335 10.5938 9.09354V5.36991C9.71093 5.77693 8.87213 6.27334 8.09051 6.85135C7.83141 7.044 7.50913 7.13173 7.18814 7.09699C6.86714 7.06225 6.57109 6.9076 6.35922 6.66397L2.90625 2.68729V16.781C2.90625 23.4531 8.54535 28.9529 15.7188 29.5407V26.2799L13.531 24.0922C13.4121 23.9731 13.3178 23.8318 13.2534 23.6763C13.1891 23.5208 13.156 23.3542 13.1561 23.1859C13.1562 23.0177 13.1894 22.851 13.2539 22.6956C13.3183 22.5402 13.4128 22.3989 13.5318 22.28C13.7722 22.0398 14.0982 21.9049 14.4381 21.9051C14.6063 21.9052 14.773 21.9384 14.9284 22.0029C15.0838 22.0673 15.225 22.1618 15.344 22.2808L17 23.9368L18.656 22.2808C18.775 22.1618 18.9162 22.0673 19.0716 22.0029C19.227 21.9384 19.3937 21.9052 19.5619 21.9051C19.7302 21.905 19.8969 21.9381 20.0523 22.0024C20.2078 22.0667 20.3491 22.1611 20.4682 22.28C20.5872 22.3989 20.6817 22.5402 20.7461 22.6956C20.8106 22.851 20.8438 23.0177 20.8439 23.1859C20.844 23.3542 20.8109 23.5208 20.7466 23.6763C20.6822 23.8318 20.5879 23.9731 20.469 24.0922L18.2812 26.2799V29.5407C25.4546 28.9497 31.0938 23.4548 31.0938 16.781V2.68729Z" fill="black"/>
</svg>
