<svg width="48" height="48" viewBox="0 0 48 48" fill="none" xmlns="http://www.w3.org/2000/svg">
<rect width="48" height="48" fill="#CCD1DC"/>
<path d="M43.0613 14.5612L19.0613 38.5612C18.9219 38.7007 18.7565 38.8113 18.5744 38.8868C18.3923 38.9623 18.1971 39.0012 18 39.0012C17.8029 39.0012 17.6077 38.9623 17.4256 38.8868C17.2435 38.8113 17.0781 38.7007 16.9388 38.5612L6.43875 28.0612C6.15729 27.7798 5.99917 27.398 5.99917 27C5.99917 26.6019 6.15729 26.2202 6.43875 25.9387C6.72021 25.6573 7.10196 25.4991 7.5 25.4991C7.89805 25.4991 8.27979 25.6573 8.56125 25.9387L18 35.3794L40.9388 12.4387C41.2202 12.1573 41.602 11.9991 42 11.9991C42.398 11.9991 42.7798 12.1573 43.0613 12.4387C43.3427 12.7202 43.5008 13.1019 43.5008 13.5C43.5008 13.898 43.3427 14.2798 43.0613 14.5612Z" fill="black"/>
</svg>
