<svg width="42" height="41" viewBox="0 0 42 41" fill="none" xmlns="http://www.w3.org/2000/svg">
<path d="M37.2817 12.4377L16.7817 32.9377C16.6627 33.0568 16.5214 33.1513 16.3659 33.2158C16.2103 33.2803 16.0436 33.3135 15.8752 33.3135C15.7068 33.3135 15.5401 33.2803 15.3846 33.2158C15.229 33.1513 15.0877 33.0568 14.9687 32.9377L5.99999 23.969C5.75958 23.7285 5.62451 23.4025 5.62451 23.0625C5.62451 22.7225 5.75958 22.3964 5.99999 22.156C6.2404 21.9156 6.56648 21.7805 6.90647 21.7805C7.24647 21.7805 7.57254 21.9156 7.81296 22.156L15.8752 30.2199L35.4687 10.6247C35.7092 10.3843 36.0352 10.2493 36.3752 10.2493C36.7152 10.2493 37.0413 10.3843 37.2817 10.6247C37.5221 10.8652 37.6572 11.1912 37.6572 11.5312C37.6572 11.8712 37.5221 12.1973 37.2817 12.4377Z" fill="black"/>
</svg>
