<svg width="32" height="33" viewBox="0 0 32 33" fill="none" xmlns="http://www.w3.org/2000/svg">
<path d="M30 12.7808C30.0009 12.518 29.9495 12.2577 29.8488 12.015C29.7482 11.7723 29.6003 11.5521 29.4138 11.367L20.8288 2.78077C20.643 2.59501 20.4225 2.44765 20.1799 2.34711C19.9372 2.24657 19.6771 2.19482 19.4144 2.19482C19.1517 2.19482 18.8916 2.24657 18.6489 2.34711C18.4062 2.44765 18.1857 2.59501 18 2.78077L14.4463 6.33452L7.19627 9.05577C6.86677 9.17865 6.57534 9.38593 6.35114 9.65686C6.12694 9.92779 5.97784 10.2529 5.91877 10.5995L3.01377 28.0308C2.9898 28.1741 2.99733 28.3209 3.03586 28.4609C3.07438 28.601 3.14296 28.731 3.23683 28.8419C3.3307 28.9528 3.4476 29.0419 3.5794 29.103C3.7112 29.1641 3.85474 29.1958 4.00002 29.1958C4.05529 29.1955 4.11047 29.1909 4.16502 29.182L21.595 26.277C21.9413 26.2192 22.2662 26.0713 22.5372 25.8482C22.8082 25.625 23.0156 25.3345 23.1388 25.0058L25.86 17.7558L29.4138 14.1958C29.6004 14.0105 29.7483 13.7901 29.849 13.5471C29.9496 13.3042 30.001 13.0437 30 12.7808ZM21.2663 24.3045L6.91502 26.6958L12.8363 20.7745C13.5758 21.1742 14.4345 21.2944 15.2554 21.113C16.0763 20.9317 16.8044 20.4609 17.3068 19.7868C17.8091 19.1128 18.052 18.2804 17.9912 17.442C17.9303 16.6035 17.5697 15.815 16.9752 15.2206C16.3808 14.6261 15.5923 14.2655 14.7538 14.2046C13.9154 14.1437 13.083 14.3867 12.4089 14.889C11.7349 15.3913 11.2641 16.1195 11.0828 16.9404C10.9014 17.7612 11.0216 18.62 11.4213 19.3595L5.50002 25.2833L7.89127 10.9283L14.75 8.35702L23.8375 17.4458L21.2663 24.3045ZM13 17.6958C13 17.3991 13.088 17.1091 13.2528 16.8624C13.4176 16.6157 13.6519 16.4235 13.926 16.31C14.2001 16.1964 14.5017 16.1667 14.7927 16.2246C15.0836 16.2825 15.3509 16.4253 15.5607 16.6351C15.7705 16.8449 15.9133 17.1122 15.9712 17.4031C16.0291 17.6941 15.9994 17.9957 15.8858 18.2698C15.7723 18.5439 15.58 18.7782 15.3334 18.943C15.0867 19.1078 14.7967 19.1958 14.5 19.1958C14.1022 19.1958 13.7207 19.0377 13.4394 18.7564C13.1581 18.4751 13 18.0936 13 17.6958ZM25 15.7808L16.4138 7.19577L19.4138 4.19577L28 12.7808L25 15.7808Z" fill="black"/>
</svg>
