<svg width="36" height="33" viewBox="0 0 36 33" fill="none" xmlns="http://www.w3.org/2000/svg">
<path id="Vector" d="M35.8912 17.0196L33.2614 2.92584C33.1971 2.58229 33.0633 2.25553 32.8681 1.96564C32.6728 1.67574 32.4204 1.42885 32.1262 1.24013C31.832 1.05142 31.5024 0.924875 31.1575 0.868286C30.8126 0.811697 30.4598 0.826256 30.1207 0.91107L30.0711 0.925484L21.6597 3.4063H14.3405L5.92912 0.933492L5.87947 0.919078C5.54042 0.834264 5.1876 0.819704 4.84272 0.876294C4.49783 0.932883 4.16816 1.05943 3.87399 1.24814C3.57982 1.43685 3.32736 1.68375 3.13214 1.97364C2.93692 2.26354 2.80307 2.5903 2.73881 2.93384L0.109043 17.0196C-0.00341351 17.5837 0.0800617 18.1693 0.345661 18.6795C0.611261 19.1898 1.04307 19.5941 1.56967 19.8255C1.90691 19.9802 2.27331 20.061 2.64432 20.0626C3.08838 20.0623 3.52424 19.9429 3.90635 19.7166V26.4688C3.90635 28.1678 4.58129 29.7973 5.78269 30.9987C6.9841 32.2001 8.61355 32.8751 10.3126 32.8751H25.6876C27.3866 32.8751 29.0161 32.2001 30.2175 30.9987C31.4189 29.7973 32.0938 28.1678 32.0938 26.4688V19.7182C32.4755 19.9441 32.9108 20.0635 33.3543 20.0642C33.7257 20.0631 34.0926 19.9828 34.4305 19.8287C34.9578 19.5971 35.39 19.1924 35.6557 18.6814C35.9213 18.1705 36.0044 17.5842 35.8912 17.0196ZM2.6251 17.5001L5.25646 3.4063L11.9942 5.38744L2.6251 17.5001ZM25.6876 30.3126H19.2813V28.2802L21.4691 26.094C21.7095 25.8536 21.8446 25.5276 21.8446 25.1876C21.8446 24.8476 21.7095 24.5215 21.4691 24.2811C21.2287 24.0407 20.9026 23.9056 20.5626 23.9056C20.2226 23.9056 19.8965 24.0407 19.6561 24.2811L18.0001 25.9387L16.3441 24.2811C16.1037 24.0407 15.7776 23.9056 15.4376 23.9056C15.0976 23.9056 14.7715 24.0407 14.5311 24.2811C14.2907 24.5215 14.1556 24.8476 14.1556 25.1876C14.1556 25.5276 14.2907 25.8536 14.5311 26.094L16.7188 28.2802V30.3126H10.3126C9.29317 30.3126 8.3155 29.9076 7.59466 29.1867C6.87381 28.4659 6.46885 27.4882 6.46885 26.4688V16.7169L14.7842 5.9688H21.2144L29.5313 16.7169V26.4688C29.5313 27.4882 29.1264 28.4659 28.4055 29.1867C27.6847 29.9076 26.707 30.3126 25.6876 30.3126ZM33.3751 17.5001L24.006 5.38744L30.7437 3.4063L33.3751 17.5001ZM14.1563 19.4219C14.1563 19.802 14.0436 20.1736 13.8325 20.4897C13.6213 20.8057 13.3211 21.052 12.9699 21.1975C12.6188 21.343 12.2323 21.381 11.8595 21.3069C11.4867 21.2327 11.1443 21.0497 10.8755 20.7809C10.6067 20.5121 10.4237 20.1697 10.3495 19.7969C10.2754 19.4241 10.3134 19.0376 10.4589 18.6865C10.6044 18.3353 10.8507 18.0351 11.1667 17.8239C11.4828 17.6128 11.8544 17.5001 12.2345 17.5001C12.7442 17.5001 13.233 17.7025 13.5934 18.063C13.9539 18.4234 14.1563 18.9122 14.1563 19.4219ZM25.6876 19.4219C25.6876 19.802 25.5749 20.1736 25.3637 20.4897C25.1525 20.8057 24.8524 21.052 24.5012 21.1975C24.15 21.343 23.7636 21.381 23.3908 21.3069C23.018 21.2327 22.6755 21.0497 22.4068 20.7809C22.138 20.5121 21.9549 20.1697 21.8808 19.7969C21.8066 19.4241 21.8447 19.0376 21.9901 18.6865C22.1356 18.3353 22.3819 18.0351 22.698 17.8239C23.014 17.6128 23.3856 17.5001 23.7657 17.5001C24.2754 17.5001 24.7643 17.7025 25.1247 18.063C25.4851 18.4234 25.6876 18.9122 25.6876 19.4219Z" fill="black"/>
</svg>
