<svg width="24" height="26" viewBox="0 0 24 26" fill="none" xmlns="http://www.w3.org/2000/svg">
<path d="M4.90443 19.5336H9.06337C9.19246 19.5344 9.32043 19.5073 9.43993 19.4539C9.55944 19.4004 9.66814 19.3216 9.75979 19.2221L16.5475 11.777L19.3332 8.79041C19.4251 8.69053 19.4981 8.57171 19.5479 8.4408C19.5977 8.30988 19.6233 8.16946 19.6233 8.02764C19.6233 7.88582 19.5977 7.7454 19.5479 7.61448C19.4981 7.48356 19.4251 7.36474 19.3332 7.26487L15.1743 2.65604C15.0831 2.55534 14.9746 2.47542 14.8551 2.42088C14.7355 2.36634 14.6073 2.33826 14.4778 2.33826C14.3483 2.33826 14.2201 2.36634 14.1006 2.42088C13.9811 2.47542 13.8726 2.55534 13.7814 2.65604L11.0153 5.69636L4.20801 13.1414C4.1171 13.2418 4.04518 13.3608 3.99636 13.4917C3.94755 13.6226 3.92281 13.7628 3.92355 13.9042V18.4593C3.92355 18.7442 4.0269 19.0175 4.21085 19.2189C4.3948 19.4204 4.64429 19.5336 4.90443 19.5336ZM14.4778 4.9336L17.2537 7.97392L15.8609 9.49946L13.085 6.45913L14.4778 4.9336ZM5.88531 14.3446L11.7019 7.97392L14.4778 11.0142L8.66121 17.385H5.88531V14.3446ZM20.5985 21.6822H2.94267C2.68253 21.6822 2.43304 21.7954 2.24909 21.9969C2.06513 22.1984 1.96179 22.4716 1.96179 22.7566C1.96179 23.0415 2.06513 23.3148 2.24909 23.5162C2.43304 23.7177 2.68253 23.8309 2.94267 23.8309H20.5985C20.8587 23.8309 21.1082 23.7177 21.2921 23.5162C21.4761 23.3148 21.5794 23.0415 21.5794 22.7566C21.5794 22.4716 21.4761 22.1984 21.2921 21.9969C21.1082 21.7954 20.8587 21.6822 20.5985 21.6822Z" fill="black"/>
</svg>
