<svg width="42" height="41" viewBox="0 0 42 41" fill="none" xmlns="http://www.w3.org/2000/svg">
<path d="M38.188 28.828L32.3839 23.0223L26.5446 3.75715C26.3786 3.20858 26.08 2.7094 25.675 2.30384C25.2701 1.89828 24.7713 1.59884 24.223 1.43207C23.6747 1.26529 23.0937 1.23632 22.5315 1.34771C21.9693 1.45911 21.4433 1.70744 21 2.0707C20.5567 1.70744 20.0306 1.45911 19.4685 1.34771C18.9063 1.23632 18.3253 1.26529 17.777 1.43207C17.2286 1.59884 16.7299 1.89828 16.325 2.30384C15.92 2.7094 15.6213 3.20858 15.4554 3.75715L9.61608 23.0239L3.81202 28.828C3.33182 29.3085 3.06207 29.96 3.06207 30.6394C3.06207 31.3187 3.33182 31.9702 3.81202 32.4507L9.04752 37.6862C9.28548 37.9243 9.568 38.1131 9.87893 38.2419C10.1899 38.3707 10.5231 38.437 10.8597 38.437C11.1963 38.437 11.5295 38.3707 11.8405 38.2419C12.1514 38.1131 12.4339 37.9243 12.6719 37.6862L20.4042 29.9491C20.6186 29.7342 20.8176 29.5047 21 29.262C21.1823 29.5047 21.3814 29.7342 21.5958 29.9491L29.3281 37.6878C29.5661 37.9259 29.8486 38.1147 30.1595 38.2435C30.4704 38.3723 30.8037 38.4386 31.1403 38.4386C31.4768 38.4386 31.8101 38.3723 32.121 38.2435C32.432 38.1147 32.7145 37.9259 32.9524 37.6878L38.188 32.4523C38.426 32.2144 38.6148 31.9319 38.7436 31.6209C38.8724 31.31 38.9387 30.9767 38.9387 30.6402C38.9387 30.3036 38.8724 29.9703 38.7436 29.6594C38.6148 29.3485 38.426 29.066 38.188 28.828ZM10.8589 35.8749L5.62499 30.641L7.65737 28.6086L12.8929 33.8441L10.8589 35.8749ZM19.7187 25.4247C19.7213 25.9301 19.6235 26.431 19.4311 26.8984C19.2386 27.3657 18.9553 27.7903 18.5976 28.1473L14.7026 32.0311L9.46874 26.7972L11.6549 24.6095C11.8041 24.4603 11.9141 24.2765 11.9752 24.0746L17.901 4.50027C17.9611 4.28246 18.0988 4.09415 18.2881 3.97083C18.4774 3.84751 18.7053 3.7977 18.9289 3.83079C19.1524 3.86387 19.3561 3.97757 19.5016 4.15045C19.6471 4.32333 19.7243 4.54345 19.7187 4.76934V25.4247ZM23.4023 28.1473C23.0446 27.7903 22.7613 27.3657 22.5689 26.8984C22.3765 26.431 22.2787 25.9301 22.2812 25.4247V4.76453C22.2813 4.54263 22.3611 4.32813 22.506 4.16011C22.651 3.99209 22.8514 3.88172 23.0709 3.84912C23.2904 3.81651 23.5143 3.86384 23.7018 3.98248C23.8894 4.10111 24.028 4.28316 24.0926 4.49547L30.0184 24.0698C30.0795 24.2717 30.1895 24.4555 30.3387 24.6047L32.6594 26.9253L27.3101 32.0503L23.4023 28.1473ZM31.1411 35.8749L29.1295 33.8617L34.4771 28.7367L36.375 30.641L31.1411 35.8749Z" fill="black"/>
</svg>
