<svg width="32" height="32" viewBox="0 0 32 32" fill="none" xmlns="http://www.w3.org/2000/svg">
<path d="M17.1925 23.295C17.3799 23.4825 17.4851 23.7368 17.4851 24.0019C17.4851 24.267 17.3799 24.5212 17.1925 24.7087L15.95 25.9587C14.636 27.2719 12.8542 28.0093 10.9965 28.0087C9.13884 28.0081 7.3575 27.2696 6.04434 25.9556C4.73119 24.6416 3.9938 22.8598 3.99439 21.0022C3.99497 19.1445 4.73349 17.3631 6.04747 16.05L9.06247 13.035C10.3246 11.7719 12.0217 11.0388 13.8065 10.9858C15.5913 10.9329 17.3289 11.564 18.6637 12.75C18.7622 12.8373 18.8425 12.9432 18.9001 13.0616C18.9577 13.1799 18.9914 13.3085 18.9993 13.4399C19.0072 13.5713 18.9891 13.7029 18.9461 13.8274C18.9031 13.9518 18.836 14.0665 18.7487 14.165C18.6614 14.2635 18.5555 14.3438 18.4371 14.4014C18.3188 14.459 18.1902 14.4927 18.0588 14.5006C17.9274 14.5084 17.7958 14.4904 17.6714 14.4474C17.5469 14.4044 17.4322 14.3373 17.3337 14.25C16.3804 13.4034 15.1396 12.9529 13.8651 12.9908C12.5907 13.0287 11.3789 13.552 10.4775 14.4537L7.46247 17.465C6.5246 18.4029 5.99771 19.6749 5.99771 21.0012C5.99771 22.3276 6.5246 23.5996 7.46247 24.5375C8.40034 25.4754 9.67237 26.0023 10.9987 26.0023C12.3251 26.0023 13.5971 25.4754 14.535 24.5375L15.7775 23.295C15.8703 23.202 15.9806 23.1283 16.102 23.0779C16.2234 23.0276 16.3536 23.0017 16.485 23.0017C16.6164 23.0017 16.7465 23.0276 16.8679 23.0779C16.9893 23.1283 17.0996 23.202 17.1925 23.295ZM25.9525 6.04499C24.6383 4.73377 22.8577 3.99738 21.0012 3.99738C19.1448 3.99738 17.3641 4.73377 16.05 6.04499L14.8075 7.28874C14.62 7.47639 14.5147 7.73081 14.5149 7.99606C14.515 8.26131 14.6205 8.51565 14.8081 8.70312C14.9957 8.89059 15.2502 8.99585 15.5154 8.99573C15.7807 8.99562 16.035 8.89014 16.2225 8.7025L17.465 7.45999C18.4028 6.52212 19.6749 5.99523 21.0012 5.99523C22.3276 5.99523 23.5996 6.52212 24.5375 7.45999C25.4753 8.39787 26.0022 9.66989 26.0022 10.9962C26.0022 12.3226 25.4753 13.5946 24.5375 14.5325L21.5225 17.55C20.6206 18.4512 19.4085 18.9738 18.134 19.011C16.8596 19.0482 15.6191 18.5971 14.6662 17.75C14.5677 17.6627 14.453 17.5956 14.3286 17.5526C14.2042 17.5096 14.0725 17.4915 13.9411 17.4994C13.6758 17.5154 13.4276 17.6361 13.2512 17.835C13.1639 17.9335 13.0968 18.0482 13.0538 18.1726C13.0108 18.297 12.9928 18.4287 13.0007 18.5601C13.0166 18.8255 13.1373 19.0736 13.3362 19.25C14.6707 20.4364 16.4081 21.0679 18.1929 21.0154C19.9778 20.9629 21.675 20.2303 22.9375 18.9675L25.9525 15.9525C27.2645 14.6382 28.0013 12.857 28.0013 11C28.0013 9.14294 27.2645 7.36177 25.9525 6.04749V6.04499Z" fill="black"/>
</svg>
