<svg width="26" height="37" viewBox="0 0 26 37" fill="none" xmlns="http://www.w3.org/2000/svg">
<path id="Vector" d="M13 26.1875C15.0382 26.1854 16.9923 25.3748 18.4335 23.9335C19.8748 22.4923 20.6854 20.5382 20.6875 18.5V8.25C20.6875 6.21115 19.8776 4.2558 18.4359 2.81412C16.9942 1.37243 15.0389 0.5625 13 0.5625C10.9611 0.5625 9.0058 1.37243 7.56412 2.81412C6.12243 4.2558 5.3125 6.21115 5.3125 8.25V18.5C5.31462 20.5382 6.12523 22.4923 7.56646 23.9335C9.00768 25.3748 10.9618 26.1854 13 26.1875ZM7.875 8.25C7.875 6.89077 8.41495 5.5872 9.37608 4.62608C10.3372 3.66495 11.6408 3.125 13 3.125C14.3592 3.125 15.6628 3.66495 16.6239 4.62608C17.585 5.5872 18.125 6.89077 18.125 8.25V18.5C18.125 19.8592 17.585 21.1628 16.6239 22.1239C15.6628 23.085 14.3592 23.625 13 23.625C11.6408 23.625 10.3372 23.085 9.37608 22.1239C8.41495 21.1628 7.875 19.8592 7.875 18.5V8.25ZM14.2812 31.2484V35.1562C14.2812 35.4961 14.1463 35.8219 13.906 36.0622C13.6657 36.3025 13.3398 36.4375 13 36.4375C12.6602 36.4375 12.3343 36.3025 12.094 36.0622C11.8537 35.8219 11.7188 35.4961 11.7188 35.1562V31.2484C8.55989 30.927 5.63244 29.4457 3.50248 27.0909C1.37253 24.7361 0.191402 21.6752 0.1875 18.5C0.1875 18.1602 0.322489 17.8343 0.56277 17.594C0.803051 17.3537 1.12894 17.2188 1.46875 17.2188C1.80856 17.2188 2.13445 17.3537 2.37473 17.594C2.61501 17.8343 2.75 18.1602 2.75 18.5C2.75 21.2185 3.82991 23.8256 5.75215 25.7478C7.6744 27.6701 10.2815 28.75 13 28.75C15.7185 28.75 18.3256 27.6701 20.2478 25.7478C22.1701 23.8256 23.25 21.2185 23.25 18.5C23.25 18.1602 23.385 17.8343 23.6253 17.594C23.8655 17.3537 24.1914 17.2188 24.5312 17.2188C24.8711 17.2188 25.197 17.3537 25.4372 17.594C25.6775 17.8343 25.8125 18.1602 25.8125 18.5C25.8086 21.6752 24.6275 24.7361 22.4975 27.0909C20.3676 29.4457 17.4401 30.927 14.2812 31.2484Z" fill="black"/>
</svg>
