<svg width="42" height="41" viewBox="0 0 42 41" fill="none" xmlns="http://www.w3.org/2000/svg">
<path d="M27.4062 3.84375V1.28125C27.4062 0.941441 27.5412 0.61555 27.7815 0.375269C28.0218 0.134988 28.3477 0 28.6875 0C29.0273 0 29.3532 0.134988 29.5934 0.375269C29.8337 0.61555 29.9687 0.941441 29.9687 1.28125V3.84375C29.9687 4.18356 29.8337 4.50945 29.5934 4.74973C29.3532 4.99001 29.0273 5.125 28.6875 5.125C28.3477 5.125 28.0218 4.99001 27.7815 4.74973C27.5412 4.50945 27.4062 4.18356 27.4062 3.84375ZM33.1446 6.56641C33.3461 6.68762 33.5774 6.75028 33.8125 6.74738C34.0323 6.74773 34.2486 6.69149 34.4405 6.58406C34.6323 6.47663 34.7933 6.32164 34.9079 6.13398L36.1892 4.03434C36.2783 3.89066 36.3382 3.73075 36.3652 3.56383C36.3923 3.39692 36.3861 3.2263 36.3469 3.06181C36.3077 2.89732 36.2363 2.74221 36.1369 2.60543C36.0375 2.46866 35.9119 2.35291 35.7676 2.26487C35.6232 2.17684 35.4628 2.11825 35.2957 2.09248C35.1286 2.06672 34.958 2.07429 34.7939 2.11476C34.6297 2.15523 34.4751 2.2278 34.3391 2.32829C34.2031 2.42877 34.0884 2.55518 34.0014 2.70023L32.7202 4.79828C32.6314 4.94208 32.5719 5.10202 32.5451 5.26891C32.5184 5.4358 32.5249 5.60633 32.5644 5.77068C32.6038 5.93503 32.6754 6.08995 32.775 6.22652C32.8746 6.36308 33.0002 6.4786 33.1446 6.56641ZM40.7424 8.58277C40.6908 8.4226 40.6081 8.27417 40.4992 8.14595C40.3902 8.01773 40.257 7.91224 40.1072 7.8355C39.9575 7.75876 39.794 7.71227 39.6263 7.69869C39.4586 7.68511 39.2898 7.70471 39.1297 7.75637L36.7273 8.53312C36.4361 8.62624 36.1877 8.82046 36.0271 9.08068C35.8666 9.3409 35.8043 9.64997 35.8517 9.95205C35.8991 10.2541 36.053 10.5293 36.2855 10.7279C36.518 10.9264 36.8139 11.0353 37.1197 11.0348C37.2534 11.0343 37.3863 11.0132 37.5137 10.9723L39.916 10.1955C40.0769 10.144 40.226 10.0611 40.3548 9.95165C40.4835 9.84221 40.5893 9.7084 40.6661 9.5579C40.7429 9.40741 40.7892 9.24321 40.8023 9.07476C40.8154 8.9063 40.7951 8.73692 40.7424 8.57637V8.58277ZM35.9377 14.9794C37.3544 17.4161 37.9248 20.253 37.56 23.0478C37.1953 25.8427 35.9159 28.4382 33.9214 30.4297C33.2293 32.8481 31.8407 35.0093 29.9286 36.6439C28.0166 38.2784 25.6657 39.3139 23.169 39.6213C20.6724 39.9287 18.1405 39.4944 15.889 38.3725C13.6376 37.2506 11.7661 35.4908 10.5081 33.3125L4.90266 23.6022C4.56041 23.0086 4.36995 22.3397 4.34817 21.6548C4.3264 20.9699 4.47398 20.2902 4.77782 19.676C5.08167 19.0618 5.53239 18.5321 6.09001 18.1339C6.64763 17.7356 7.29491 17.4811 7.97445 17.393L7.33383 16.2815C6.99689 15.6979 6.80664 15.0412 6.77941 14.3678C6.75218 13.6944 6.88879 13.0245 7.17751 12.4156C7.46622 11.8067 7.89842 11.2769 8.43698 10.8718C8.97554 10.4667 9.60438 10.1984 10.2695 10.0898C9.93589 9.17128 9.93599 8.16464 10.2698 7.24615C10.6036 6.32765 11.2498 5.55581 12.0953 5.06574C12.8706 4.61976 13.7687 4.43474 14.6571 4.53798C15.5456 4.64121 16.3773 5.02723 17.0297 5.6391C17.4293 5.06231 17.9681 4.59584 18.5962 4.28301C19.2243 3.97019 19.9213 3.82116 20.6224 3.84976C21.3235 3.87836 22.006 4.08366 22.6065 4.4466C23.207 4.80955 23.7061 5.31836 24.0573 5.92578L25.9792 9.25543C26.3953 8.71056 26.9395 8.27686 27.5635 7.99283C28.1875 7.7088 28.872 7.58324 29.5562 7.62729C30.2403 7.67134 30.903 7.88363 31.4854 8.24533C32.0679 8.60703 32.552 9.10693 32.8948 9.70066L35.9377 14.9794ZM19.0653 8.80859L20.015 10.4534C20.3321 10.743 20.6023 11.0802 20.8158 11.4528L22.7377 14.776C23.3693 13.9556 24.282 13.3978 25.3002 13.2097L21.8392 7.20703C21.6268 6.8392 21.277 6.57079 20.8667 6.46087C20.4564 6.35094 20.0193 6.40849 19.6514 6.62086C19.2836 6.83325 19.0152 7.18305 18.9053 7.59333C18.7954 8.00361 18.8529 8.44075 19.0653 8.80859ZM12.7904 9.47324L13.7401 11.1196L13.7913 11.1661C14.102 10.7162 14.4985 10.3321 14.9581 10.0358C15.4176 9.73956 15.9311 9.53694 16.4691 9.43961L15.5643 7.87168C15.4059 7.59733 15.1698 7.3761 14.8857 7.23596C14.6016 7.09583 14.2823 7.04308 13.9683 7.08439C13.6542 7.12571 13.3595 7.25923 13.1213 7.46807C12.8831 7.67691 12.7122 7.95169 12.6302 8.25766C12.575 8.46078 12.5608 8.67284 12.5883 8.88152C12.6158 9.0902 12.6845 9.29133 12.7904 9.47324ZM31.5046 29.56C31.8564 28.2601 31.9469 26.9032 31.771 25.568C31.5951 24.2328 31.1561 22.9457 30.4796 21.7812L27.4366 16.5105C27.2297 16.1557 26.8943 15.894 26.4998 15.7794C26.1054 15.6649 25.682 15.7063 25.3172 15.8951C24.9524 16.0838 24.674 16.4056 24.5397 16.7937C24.4054 17.1819 24.4254 17.6069 24.5955 17.9807L26.4245 21.1406C26.5944 21.4352 26.6403 21.7852 26.5521 22.1136C26.464 22.4421 26.249 22.722 25.9544 22.8919C25.6598 23.0618 25.3098 23.1078 24.9814 23.0196C24.653 22.9315 24.373 22.7164 24.2031 22.4219L18.5976 12.7372C18.3777 12.389 18.0321 12.1389 17.6326 12.0388C17.233 11.9388 16.8103 11.9965 16.4523 12.1999C16.0942 12.4034 15.8282 12.737 15.7097 13.1314C15.5911 13.5259 15.6291 13.9508 15.8157 14.318L19.7604 21.1406C19.8498 21.2865 19.9091 21.4488 19.9348 21.6179C19.9606 21.7871 19.9521 21.9597 19.9101 22.1255C19.868 22.2913 19.7931 22.4471 19.6899 22.5835C19.5867 22.72 19.4571 22.8344 19.309 22.9199C19.1608 23.0055 18.997 23.0605 18.8273 23.0818C18.6575 23.103 18.4852 23.0901 18.3205 23.0437C18.1558 22.9972 18.0021 22.9183 17.8684 22.8115C17.7348 22.7047 17.6238 22.5722 17.5422 22.4219L12.3259 13.3987C12.2215 13.2151 12.0818 13.0539 11.9149 12.9245C11.748 12.7951 11.5571 12.7 11.3533 12.6446C11.1494 12.5893 10.9367 12.5748 10.7272 12.6021C10.5177 12.6293 10.3158 12.6977 10.1328 12.8033C9.94992 12.9089 9.7897 13.0496 9.6614 13.2174C9.5331 13.3852 9.43926 13.5767 9.38527 13.7809C9.33129 13.9851 9.31822 14.1979 9.34684 14.4072C9.37545 14.6165 9.44517 14.818 9.55199 15.0002L15.3176 24.9876C15.4017 25.1333 15.4563 25.2942 15.4783 25.4611C15.5002 25.6279 15.4891 25.7975 15.4455 25.96C15.402 26.1226 15.3268 26.2749 15.2243 26.4084C15.1219 26.5419 14.9941 26.654 14.8484 26.7381C14.7026 26.8222 14.5417 26.8768 14.3749 26.8988C14.208 26.9207 14.0385 26.9096 13.8759 26.866C13.7134 26.8224 13.561 26.7473 13.4275 26.6448C13.294 26.5423 13.182 26.4146 13.0979 26.2688L9.89473 20.721C9.68084 20.3562 9.33132 20.0907 8.92245 19.9826C8.51358 19.8745 8.07855 19.9325 7.71229 20.144C7.34603 20.3555 7.07828 20.7032 6.96747 21.1114C6.85666 21.5195 6.91179 21.9549 7.12082 22.3226L12.7263 32.0329C13.7399 33.7888 15.2514 35.2047 17.0698 36.1014C18.8881 36.9982 20.9316 37.3356 22.9417 37.0709C24.9518 36.8062 26.8383 35.9513 28.3625 34.6144C29.8867 33.2774 30.9802 31.5185 31.5046 29.56ZM33.718 16.2543L30.675 10.9835C30.4611 10.6187 30.1116 10.3532 29.7027 10.2451C29.2939 10.137 28.8588 10.195 28.4926 10.4065C28.1263 10.618 27.8586 10.9657 27.7477 11.3739C27.6369 11.782 27.6921 12.2174 27.9011 12.5851L28.8476 14.2267C29.1646 14.5176 29.4347 14.8558 29.6484 15.2293L32.6914 20.5C33.5464 21.9777 34.0979 23.6112 34.3138 25.3047C34.9176 23.852 35.1781 22.2796 35.0747 20.7098C34.9714 19.14 34.5071 17.6152 33.718 16.2543Z" fill="black"/>
</svg>
