<svg width="33" height="32" viewBox="0 0 33 32" fill="none" xmlns="http://www.w3.org/2000/svg">
<path d="M29.2075 27.2925L22.9488 21.035C24.7628 18.8571 25.6674 16.0637 25.4743 13.2359C25.2813 10.4081 24.0054 7.76357 21.9122 5.85247C19.819 3.94136 17.0696 2.91082 14.2359 2.97522C11.4023 3.03962 8.70249 4.194 6.69827 6.19823C4.69404 8.20246 3.53966 10.9022 3.47526 13.7359C3.41086 16.5696 4.4414 19.319 6.35251 21.4122C8.26361 23.5054 10.9081 24.7812 13.736 24.9743C16.5638 25.1674 19.3572 24.2628 21.535 22.4488L27.7925 28.7075C27.8855 28.8004 27.9958 28.8741 28.1171 28.9244C28.2385 28.9747 28.3686 29.0006 28.5 29.0006C28.6314 29.0006 28.7615 28.9747 28.8829 28.9244C29.0043 28.8741 29.1146 28.8004 29.2075 28.7075C29.3005 28.6146 29.3742 28.5043 29.4244 28.3829C29.4747 28.2615 29.5006 28.1314 29.5006 28C29.5006 27.8686 29.4747 27.7385 29.4244 27.6171C29.3742 27.4957 29.3005 27.3854 29.2075 27.2925ZM5.50004 14C5.50004 12.22 6.02788 10.4799 7.01681 8.99987C8.00575 7.51983 9.41136 6.36628 11.0559 5.68509C12.7004 5.0039 14.51 4.82567 16.2559 5.17294C18.0017 5.5202 19.6053 6.37737 20.864 7.63604C22.1227 8.89471 22.9798 10.4984 23.3271 12.2442C23.6744 13.99 23.4961 15.7996 22.815 17.4442C22.1338 19.0887 20.9802 20.4943 19.5002 21.4832C18.0201 22.4722 16.2801 23 14.5 23C12.1139 22.9974 9.82626 22.0483 8.139 20.361C6.45175 18.6738 5.50269 16.3861 5.50004 14Z" fill="black"/>
</svg>
