<svg width="34" height="35" viewBox="0 0 34 35" fill="none" xmlns="http://www.w3.org/2000/svg">
<path id="Vector" d="M17 0.84375C13.7057 0.84375 10.4854 1.82062 7.74629 3.65083C5.00718 5.48105 2.87231 8.0824 1.61164 11.1259C0.350967 14.1695 0.0211176 17.5185 0.663803 20.7495C1.30649 23.9805 2.89284 26.9483 5.22226 29.2777C7.55168 31.6072 10.5195 33.1935 13.7505 33.8362C16.9815 34.4789 20.3305 34.149 23.3741 32.8884C26.4176 31.6277 29.019 29.4928 30.8492 26.7537C32.6794 24.0146 33.6563 20.7943 33.6563 17.5C33.6516 13.0839 31.8952 8.85005 28.7726 5.7274C25.65 2.60476 21.4161 0.848413 17 0.84375ZM17 31.5938C14.2125 31.5938 11.4876 30.7672 9.16994 29.2185C6.85223 27.6699 5.0458 25.4687 3.97908 22.8934C2.91236 20.3181 2.63325 17.4844 3.17706 14.7504C3.72088 12.0165 5.06318 9.50526 7.03422 7.53421C9.00527 5.56317 11.5165 4.22087 14.2505 3.67706C16.9844 3.13325 19.8182 3.41235 22.3935 4.47907C24.9687 5.5458 27.1699 7.35223 28.7185 9.66993C30.2672 11.9876 31.0938 14.7125 31.0938 17.5C31.0895 21.2366 29.6033 24.8189 26.9611 27.4611C24.3189 30.1033 20.7366 31.5895 17 31.5938ZM9.31251 14.2969C9.31251 13.9168 9.42522 13.5452 9.6364 13.2291C9.84758 12.9131 10.1477 12.6668 10.4989 12.5213C10.8501 12.3758 11.2365 12.3378 11.6093 12.4119C11.9821 12.4861 12.3246 12.6691 12.5934 12.9379C12.8621 13.2067 13.0452 13.5491 13.1193 13.9219C13.1935 14.2947 13.1554 14.6812 13.01 15.0323C12.8645 15.3835 12.6182 15.6837 12.3021 15.8949C11.9861 16.106 11.6145 16.2188 11.2344 16.2188C10.7247 16.2188 10.2358 16.0163 9.87541 15.6558C9.51499 15.2954 9.31251 14.8066 9.31251 14.2969ZM25.9688 14.2969C25.9688 14.6367 25.8338 14.9626 25.5935 15.2029C25.3532 15.4431 25.0273 15.5781 24.6875 15.5781H20.8438C20.5039 15.5781 20.1781 15.4431 19.9378 15.2029C19.6975 14.9626 19.5625 14.6367 19.5625 14.2969C19.5625 13.9571 19.6975 13.6312 19.9378 13.3909C20.1781 13.1506 20.5039 13.0156 20.8438 13.0156H24.6875C25.0273 13.0156 25.3532 13.1506 25.5935 13.3909C25.8338 13.6312 25.9688 13.9571 25.9688 14.2969ZM24.5145 21.9844C22.8665 24.8336 20.1279 26.4688 17 26.4688C13.8722 26.4688 11.1335 24.8352 9.48387 21.9844C9.39975 21.8386 9.34515 21.6777 9.3232 21.5109C9.30126 21.344 9.31239 21.1745 9.35596 21.0119C9.39954 20.8494 9.4747 20.697 9.57716 20.5635C9.67963 20.43 9.80738 20.318 9.95313 20.2339C10.0989 20.1497 10.2598 20.0951 10.4266 20.0732C10.5935 20.0512 10.763 20.0624 10.9256 20.106C11.0881 20.1495 11.2405 20.2247 11.374 20.3272C11.5075 20.4296 11.6195 20.5574 11.7036 20.7031C12.8984 22.7707 14.7786 23.9062 17 23.9062C19.2214 23.9062 21.1016 22.7691 22.298 20.7031C22.3781 20.55 22.4883 20.4147 22.6221 20.3053C22.7558 20.1959 22.9103 20.1146 23.0763 20.0665C23.2422 20.0184 23.4162 20.0043 23.5878 20.0251C23.7593 20.046 23.9249 20.1013 24.0745 20.1877C24.2241 20.2742 24.3546 20.3901 24.4583 20.5283C24.562 20.6666 24.6366 20.8244 24.6777 20.9922C24.7188 21.16 24.7256 21.3345 24.6975 21.505C24.6695 21.6755 24.6072 21.8385 24.5145 21.9844Z" fill="black"/>
</svg>
