<svg width="33" height="33" viewBox="0 0 33 33" fill="none" xmlns="http://www.w3.org/2000/svg">
<path d="M27.5 5.1958H5.5C4.96957 5.1958 4.46086 5.40651 4.08579 5.78159C3.71071 6.15666 3.5 6.66537 3.5 7.1958V25.1958C3.5 25.7262 3.71071 26.2349 4.08579 26.61C4.46086 26.9851 4.96957 27.1958 5.5 27.1958H27.5C28.0304 27.1958 28.5391 26.9851 28.9142 26.61C29.2893 26.2349 29.5 25.7262 29.5 25.1958V7.1958C29.5 6.66537 29.2893 6.15666 28.9142 5.78159C28.5391 5.40651 28.0304 5.1958 27.5 5.1958ZM27.5 25.1958H5.5V7.1958H27.5V25.1958ZM10.5 10.6958C10.5 10.9925 10.412 11.2825 10.2472 11.5292C10.0824 11.7758 9.84811 11.9681 9.57403 12.0816C9.29994 12.1952 8.99834 12.2249 8.70736 12.167C8.41639 12.1091 8.14912 11.9662 7.93934 11.7565C7.72956 11.5467 7.5867 11.2794 7.52882 10.9884C7.47094 10.6975 7.50065 10.3959 7.61418 10.1218C7.72771 9.84769 7.91997 9.61342 8.16664 9.4486C8.41332 9.28377 8.70333 9.1958 9 9.1958C9.39782 9.1958 9.77936 9.35384 10.0607 9.63514C10.342 9.91644 10.5 10.298 10.5 10.6958ZM15.5 10.6958C15.5 10.9925 15.412 11.2825 15.2472 11.5292C15.0824 11.7758 14.8481 11.9681 14.574 12.0816C14.2999 12.1952 13.9983 12.2249 13.7074 12.167C13.4164 12.1091 13.1491 11.9662 12.9393 11.7565C12.7296 11.5467 12.5867 11.2794 12.5288 10.9884C12.4709 10.6975 12.5006 10.3959 12.6142 10.1218C12.7277 9.84769 12.92 9.61342 13.1666 9.4486C13.4133 9.28377 13.7033 9.1958 14 9.1958C14.3978 9.1958 14.7794 9.35384 15.0607 9.63514C15.342 9.91644 15.5 10.298 15.5 10.6958Z" fill="black"/>
</svg>
