<svg width="32" height="33" viewBox="0 0 32 33" fill="none" xmlns="http://www.w3.org/2000/svg">
<path d="M7.30254 16.6325L13.7538 14.2575L16.1288 7.80125C16.2694 7.41916 16.5239 7.08941 16.8578 6.85648C17.1918 6.62356 17.5891 6.49867 17.9963 6.49867C18.4034 6.49867 18.8008 6.62356 19.1347 6.85648C19.4687 7.08941 19.7231 7.41916 19.8638 7.80125L22.2413 14.25L28.6975 16.625C29.0796 16.7656 29.4094 17.0201 29.6423 17.354C29.8752 17.688 30.0001 18.0853 30.0001 18.4925C30.0001 18.8997 29.8752 19.297 29.6423 19.631C29.4094 19.9649 29.0796 20.2194 28.6975 20.36L22.25 22.75L19.875 29.2025C19.7344 29.5846 19.4799 29.9143 19.146 30.1473C18.812 30.3802 18.4147 30.5051 18.0075 30.5051C17.6004 30.5051 17.203 30.3802 16.8691 30.1473C16.5351 29.9143 16.2807 29.5846 16.14 29.2025L13.765 22.7512L7.30879 20.3762C6.9267 20.2356 6.59695 19.9811 6.36402 19.6472C6.1311 19.3133 6.00621 18.9159 6.00621 18.5088C6.00621 18.1016 6.1311 17.7042 6.36402 17.3703C6.59695 17.0364 6.9267 16.7819 7.30879 16.6413L7.30254 16.6325ZM14.4513 20.875C14.7215 20.9742 14.9669 21.131 15.1705 21.3345C15.374 21.5381 15.5309 21.7835 15.63 22.0537L18.005 28.4862L20.375 22.0487C20.4743 21.7799 20.6306 21.5358 20.8332 21.3332C21.0359 21.1306 21.28 20.9743 21.5488 20.875L27.9813 18.5L21.5488 16.125C21.28 16.0257 21.0359 15.8694 20.8332 15.6668C20.6306 15.4642 20.4743 15.2201 20.375 14.9513L18 8.51875L15.625 14.9513C15.5259 15.2215 15.369 15.4669 15.1655 15.6705C14.9619 15.874 14.7165 16.0308 14.4463 16.13L8.01379 18.505L14.4513 20.875ZM14 5.5C14 5.23478 13.8947 4.98043 13.7071 4.79289C13.5196 4.60536 13.2653 4.5 13 4.5H11V2.5C11 2.23478 10.8947 1.98043 10.7071 1.79289C10.5196 1.60536 10.2653 1.5 10 1.5C9.73482 1.5 9.48047 1.60536 9.29293 1.79289C9.1054 1.98043 9.00004 2.23478 9.00004 2.5V4.5H7.00004C6.73482 4.5 6.48047 4.60536 6.29293 4.79289C6.1054 4.98043 6.00004 5.23478 6.00004 5.5C6.00004 5.76522 6.1054 6.01957 6.29293 6.20711C6.48047 6.39464 6.73482 6.5 7.00004 6.5H9.00004V8.5C9.00004 8.76522 9.1054 9.01957 9.29293 9.20711C9.48047 9.39464 9.73482 9.5 10 9.5C10.2653 9.5 10.5196 9.39464 10.7071 9.20711C10.8947 9.01957 11 8.76522 11 8.5V6.5H13C13.2653 6.5 13.5196 6.39464 13.7071 6.20711C13.8947 6.01957 14 5.76522 14 5.5ZM1.00004 11.5C1.00004 11.7652 1.1054 12.0196 1.29293 12.2071C1.48047 12.3946 1.73482 12.5 2.00004 12.5H3.00004V13.5C3.00004 13.7652 3.1054 14.0196 3.29293 14.2071C3.48047 14.3946 3.73482 14.5 4.00004 14.5C4.26526 14.5 4.51961 14.3946 4.70715 14.2071C4.89468 14.0196 5.00004 13.7652 5.00004 13.5V12.5H6.00004C6.26526 12.5 6.51961 12.3946 6.70715 12.2071C6.89468 12.0196 7.00004 11.7652 7.00004 11.5C7.00004 11.2348 6.89468 10.9804 6.70715 10.7929C6.51961 10.6054 6.26526 10.5 6.00004 10.5H5.00004V9.5C5.00004 9.23478 4.89468 8.98043 4.70715 8.79289C4.51961 8.60536 4.26526 8.5 4.00004 8.5C3.73482 8.5 3.48047 8.60536 3.29293 8.79289C3.1054 8.98043 3.00004 9.23478 3.00004 9.5V10.5H2.00004C1.73482 10.5 1.48047 10.6054 1.29293 10.7929C1.1054 10.9804 1.00004 11.2348 1.00004 11.5Z" fill="black"/>
</svg>
