<svg width="33" height="33" viewBox="0 0 33 33" fill="none" xmlns="http://www.w3.org/2000/svg">
<path d="M18.5 11.6958C18.5 11.3991 18.588 11.1091 18.7528 10.8624C18.9176 10.6158 19.1519 10.4235 19.426 10.31C19.7001 10.1964 20.0017 10.1667 20.2926 10.2246C20.5836 10.2825 20.8509 10.4254 21.0607 10.6351C21.2704 10.8449 21.4133 11.1122 21.4712 11.4032C21.5291 11.6941 21.4993 11.9957 21.3858 12.2698C21.2723 12.5439 21.08 12.7782 20.8334 12.943C20.5867 13.1078 20.2967 13.1958 20 13.1958C19.6022 13.1958 19.2206 13.0378 18.9393 12.7565C18.658 12.4752 18.5 12.0936 18.5 11.6958ZM13 10.1958C12.7033 10.1958 12.4133 10.2838 12.1666 10.4486C11.92 10.6134 11.7277 10.8477 11.6142 11.1218C11.5006 11.3959 11.4709 11.6975 11.5288 11.9884C11.5867 12.2794 11.7296 12.5467 11.9393 12.7565C12.1491 12.9662 12.4164 13.1091 12.7074 13.167C12.9983 13.2249 13.2999 13.1951 13.574 13.0816C13.8481 12.9681 14.0824 12.7758 14.2472 12.5292C14.412 12.2825 14.5 11.9925 14.5 11.6958C14.5 11.298 14.342 10.9164 14.0607 10.6351C13.7794 10.3538 13.3978 10.1958 13 10.1958ZM27.5 18.1958C27.5028 19.1665 27.3766 20.1333 27.125 21.0708L29.905 22.2858C30.1121 22.3801 30.2808 22.5423 30.3833 22.7454C30.4858 22.9486 30.5159 23.1807 30.4687 23.4033C30.4215 23.6259 30.2998 23.8257 30.1237 23.9698C29.9476 24.1139 29.7276 24.1936 29.5 24.1958C29.3623 24.1961 29.226 24.1676 29.1 24.112L26.4225 22.9458C25.5267 24.8178 24.1197 26.3981 22.3639 27.5044C20.6082 28.6107 18.5752 29.1977 16.5 29.1977C14.4248 29.1977 12.3918 28.6107 10.6361 27.5044C8.88028 26.3981 7.47326 24.8178 6.5775 22.9458L3.9 24.112C3.77398 24.1676 3.63772 24.1961 3.5 24.1958C3.27037 24.1957 3.04778 24.1165 2.86963 23.9716C2.69148 23.8267 2.56863 23.6249 2.52171 23.4001C2.47478 23.1753 2.50665 22.9413 2.61196 22.7372C2.71727 22.5331 2.8896 22.3715 3.1 22.2795L5.875 21.0708C5.62335 20.1333 5.49725 19.1665 5.5 18.1958V17.1958H2.5C2.23478 17.1958 1.98043 17.0904 1.79289 16.9029C1.60536 16.7154 1.5 16.461 1.5 16.1958C1.5 15.9306 1.60536 15.6762 1.79289 15.4887C1.98043 15.3012 2.23478 15.1958 2.5 15.1958H5.5V14.1958C5.49725 13.2251 5.62335 12.2583 5.875 11.3208L3.1 10.112C2.9768 10.0615 2.86495 9.98679 2.771 9.89239C2.67706 9.798 2.60291 9.68579 2.55292 9.56235C2.50293 9.43891 2.4781 9.30673 2.47989 9.17356C2.48167 9.0404 2.51004 8.90893 2.56332 8.78688C2.61661 8.66483 2.69374 8.55465 2.79018 8.4628C2.88662 8.37096 3.00044 8.29931 3.12495 8.25205C3.24946 8.20479 3.38215 8.18288 3.51525 8.1876C3.64834 8.19233 3.77915 8.22358 3.9 8.27955L6.5775 9.4458C7.47326 7.57383 8.88028 5.99345 10.6361 4.88717C12.3918 3.78089 14.4248 3.19385 16.5 3.19385C18.5752 3.19385 20.6082 3.78089 22.3639 4.88717C24.1197 5.99345 25.5267 7.57383 26.4225 9.4458L29.1 8.2758C29.3418 8.17652 29.6129 8.17587 29.8552 8.27399C30.0975 8.37211 30.2917 8.5612 30.3963 8.80077C30.5009 9.04033 30.5075 9.31133 30.4147 9.55571C30.322 9.8001 30.1372 9.99846 29.9 10.1083L27.125 11.327C27.3766 12.2646 27.5028 13.2313 27.5 14.202V15.202H30.5C30.7652 15.202 31.0196 15.3074 31.2071 15.4949C31.3946 15.6825 31.5 15.9368 31.5 16.202C31.5 16.4673 31.3946 16.7216 31.2071 16.9092C31.0196 17.0967 30.7652 17.202 30.5 17.202H27.5V18.1958ZM7.5 15.1958H25.5V14.1958C25.5 11.8088 24.5518 9.51966 22.864 7.83183C21.1761 6.14401 18.8869 5.1958 16.5 5.1958C14.1131 5.1958 11.8239 6.14401 10.136 7.83183C8.44821 9.51966 7.5 11.8088 7.5 14.1958V15.1958ZM15.5 27.1383V17.1958H7.5V18.1958C7.50263 20.4087 8.31952 22.5432 9.79493 24.1924C11.2703 25.8416 13.3011 26.8902 15.5 27.1383ZM25.5 18.1958V17.1958H17.5V27.1383C19.6989 26.8902 21.7297 25.8416 23.2051 24.1924C24.6805 22.5432 25.4974 20.4087 25.5 18.1958Z" fill="black"/>
</svg>
