<svg width="42" height="42" viewBox="0 0 42 42" fill="none" xmlns="http://www.w3.org/2000/svg">
<path d="M21 0.504883C16.9826 0.504883 13.0554 1.69619 9.71499 3.92816C6.37461 6.16012 3.77111 9.3325 2.23371 13.0441C0.696301 16.7557 0.294046 20.8399 1.07781 24.7802C1.86157 28.7204 3.79615 32.3397 6.6369 35.1805C9.47766 38.0212 13.097 39.9558 17.0372 40.7396C20.9775 41.5233 25.0616 41.1211 28.7733 39.5837C32.4849 38.0463 35.6573 35.4428 37.8892 32.1024C40.1212 28.762 41.3125 24.8348 41.3125 20.8174C41.3068 15.4319 39.1649 10.2687 35.3568 6.46056C31.5487 2.65246 26.3855 0.51057 21 0.504883ZM15.8496 28.6299H26.1504C25.1016 32.2119 23.3438 35.4404 21 37.9834C18.6563 35.4404 16.8984 32.2119 15.8496 28.6299ZM15.1406 25.5049C14.6224 22.4014 14.6224 19.2334 15.1406 16.1299H26.8594C27.3776 19.2334 27.3776 22.4014 26.8594 25.5049H15.1406ZM3.81251 20.8174C3.81115 19.2323 4.03004 17.6547 4.4629 16.1299H11.9746C11.5085 19.2375 11.5085 22.3973 11.9746 25.5049H4.4629C4.03004 23.98 3.81115 22.4025 3.81251 20.8174ZM26.1504 13.0049H15.8496C16.8984 9.42285 18.6563 6.19434 21 3.65137C23.3438 6.19434 25.1016 9.42285 26.1504 13.0049ZM30.0254 16.1299H37.5371C38.4043 19.1947 38.4043 22.44 37.5371 25.5049H30.0254C30.4915 22.3973 30.4915 19.2375 30.0254 16.1299ZM36.3066 13.0049H29.3867C28.5893 9.86721 27.2502 6.89286 25.4297 4.21582C27.7556 4.84086 29.9249 5.94575 31.7982 7.45943C33.6714 8.97312 35.2072 10.8621 36.3066 13.0049ZM16.5703 4.21582C14.7498 6.89286 13.4107 9.86721 12.6133 13.0049H5.69337C6.79284 10.8621 8.32858 8.97312 10.2019 7.45943C12.0751 5.94575 14.2444 4.84086 16.5703 4.21582ZM5.69337 28.6299H12.6133C13.4107 31.7676 14.7498 34.7419 16.5703 37.4189C14.2444 36.7939 12.0751 35.689 10.2019 34.1753C8.32858 32.6616 6.79284 30.7727 5.69337 28.6299ZM25.4297 37.4189C27.2502 34.7419 28.5893 31.7676 29.3867 28.6299H36.3066C35.2072 30.7727 33.6714 32.6616 31.7982 34.1753C29.9249 35.689 27.7556 36.7939 25.4297 37.4189Z" fill="black"/>
</svg>
